<?xml version="1.0" standalone="no"?> 
<!DOCTYPE svg PUBLIC "-//W3C//DTD SVG 1.1//EN" "http://www.w3.org/Graphics/SVG/1.1/DTD/svg11.dtd" >
<svg xmlns="http://www.w3.org/2000/svg">
<defs>
  <font id="fontawesome" horiz-adv-x="640">
    <font-face font-family="Font Awesome 5 Brands"
      units-per-em="512" ascent="512"
      descent="0"
      font-weight="900"
      font-style="Brands" />
    <missing-glyph horiz-adv-x="0" />
    <glyph glyph-name="500px"
      unicode="&#xF26E;"
      horiz-adv-x="448" d=" M103.3 167.7C96.8 181.9 96.4 186 110.7 190.8C136.3 198.8 118.7 181.6 153.9 141.6H154.2V235.5C155.4 285.7 198.2 327.7 251.9000000000001 327.7C305.8 327.7 349.6 284.2 349.6 230.9C349.6 167.5 288.8 117.7 221.1 137.6C210.6 141.8 219 169.3 229.6 166.2C282.6 166.2 319 176.3 319 230.6C319 291.6 241.9 320.2000000000001 202.1 275.2000000000001C178.6 248.8 184.5 233.1 184.5 117.6C235.2 86.6 302.8 95.6 344.9 137.7000000000001C369.7 162.5000000000001 383.4 195.7000000000001 383.4 230.7000000000001C383.4 265.9000000000001 369.6 298.9000000000001 344.6 324.0000000000001C319.8 348.8000000000001 286.8 362.5000000000001 251.3 362.5000000000001S182.5 348.7000000000001 157.8 324.0000000000001C157.5 323.7000000000001 141.8 307.5000000000001 136.6 300.1L136.1 299.5000000000001C132.8 294.8000000000001 129.8 290.4000000000001 116 293.4000000000001C109.1 295.1 101.7 299.2000000000001 101.7 305.2000000000001V492C101.7 497 105.6 502.5 112.2 502.5H353.5C361.8 502.5 361.8 490.9 361.8 487.4C361.8 483.5 361.8 472.3 353.5 472.3H130.3V339.4H130.6C234.8 449.2 413.4000000000001 375.4 413.4000000000001 230.5C413.4000000000001 52.4 168.6 10.2 103.3 167.7zM166.6 428.5C166.1 424.3 171.2 404 181.2 407.9C306 455.4 384 367.5 390.6 367.5C395.4000000000001 367.5 413.4000000000001 382.8 404.9000000000001 390.3C311.7000000000001 479.3 170.4 447.3 166.6 428.5zM393 97.3C283 -12.6 94 36.5 61 201.5C61 213.7 30.6 208.9 32.1 198.2C56.1 24.8 278.1 -58.7 413.7000000000001 76.9C420.6 84.7 401.1 105.3 393.0000000000001 97.3zM213.6 205.4C213.6 201.4 217.9 198.1 219.1 196.9C222.1 193.9 225.2 192.5 227.6 192.5C231.4 192.5 230.2 192.3 249.9 212C269.5 192.7 269 192.5 272.2 192.5C277.6 192.5 290.7 202.9 282.9 210.7L265.6 228L283.8 246.2C290.1 253 273.7 268 267.6 261.9L249.7 244C231.1 262.8 231.3 263.5 228.2 263.5C223.2 263.5 210.2 251.8 215.8 246.2L234 228C215.9 210.1 213.6 208.8 213.6 205.4z" />
    <glyph glyph-name="accessible-icon"
      unicode="&#xF368;"
      horiz-adv-x="448" d=" M423.9 256.2L411 98.9C407.7 58.2 347.1 63.8 350.4 103.8L360.4 226.3L319.3 224C329.4 203.3 335.1 180.1 335.1 155.5C335.1 114.3 319 76.8 292.8 48.9999999999999L253.5 88.3C311.3999999999999 152 266.6 255.5 179.5 255.5C153.5999999999999 255.5 130 245.6 112.2999999999999 229.5L73 268.8C95 289.5 123.1 303.9 154.4 309L229.7 394.7L187.1 419.5L135.5 373.5C105.5 346.7 64.9 392 95 418.9L163 479.6C172.8 488.4 187.1 489.8 198.5 483.2C198.5 483.2 337.8 402.3 338 402.1C354.2 392 358.7 366.1 344.1 349.5L285.7 283L391.8 288.9C410.3 290 425.4 274.5 423.9 256.2zM359 410.2C387.1 410.2 409.9 433 409.9 461.1C409.9 489.2 387.1 512 359 512C330.9 512 308.1 489.2 308.1 461.1C308.1 433 330.9000000000001 410.2 359 410.2zM179.6 55.5C99 55.5 52.2 146.1 96.9 211.6L57.2 251.3C36.4 225 24 191.7 24 155.6C24 24.9 174.7 -45.8 275.4 33.1L235.7 72.8C219.7 61.9 200.4 55.5 179.6 55.5z" />
    <glyph glyph-name="adn"
      unicode="&#xF170;"
      horiz-adv-x="496" d=" M248 344.5L312.9 245.7H183.1L248 344.5zM496 256C496 119.1 384.9 8 248 8S0 119.1 0 256S111.1 504 248 504S496 392.9 496 256zM396.2 173.3L248 396.5L99.8 173.3H130.2L163.8 225H332.4L366 173.3H396.2z" />
    <glyph glyph-name="adversal"
      unicode="&#xF369;"
      horiz-adv-x="512" d=" M482.1 480H28.7C5.8 480 0 474.1 0 451.1V60.9C0 37.6 5.8 32 28.7 32H482.1C506.4999999999999 32 511.9999999999999 37.2 511.9999999999999 61.7V449.8C511.9999999999999 474.4 506.6 480 482.1 480zM178.4 291.7C150.9 311.9 106.3 300.4 94.2 268.3C89.9 257.2 84.9 258.8 76.7 260C67 261.5 59.5 263.2 54.2 265.5C25.4 276.9 62.8 320.8 79.1 329.8C120.2 351.2 162.5 352 204.4 334.6C245.3 317.8 238.9 275.4 238.9 206.1C241.6 180.3 234.6 147.8 248.2 117.3C250.1 112.9 248.6 109.4 245.5 106.6C237.1 99.9 206.2 104.4 198.9 114C197 116.1999999999999 197.1 117.6 195 120.1999999999999C191.4 124.0999999999999 187.7 122.3999999999999 183.1 119.1999999999999C125.7 82.8 42.8 97.8 36.1 162.5C33 191.8 48.5 219.6 75.7 233.5C113.9 253 187.9 245.3 189.7 264.4C190.8 274.5999999999999 187.8 284.5 178.4 291.7zM465.1 69.7C465.1 54.6 454 59.8 447.3 59.8H52.4C45 59.8 34.2 55 34.6 70.5C35 84.4 45.1 79.6 51.7 79.6C184 80 316.2 80 448.5 79.6C455.3 79.6 465.1 84 465.1 69.7000000000001zM468.9 410.2V119.2C468.9 113.5 468.2 105.3 460.8 105.3C448.4000000000001 105.7 433.3 98.2 424.7 110.9C418.9 119.6 416.9 114.9 412.3 112.1C358.9000000000001 82.4 284.2000000000001 105 267.9 197.3C261.8 230.7 267.2 264.4 283.6 297.3C295.4 321.2000000000001 340.5 373.4 419.7 327.8V398.8C419.7 425 419.5999999999999 425 445.7 425C448.8 425 452.3 424.6 455.3999999999999 425C465.4999999999999 425.8 468.9999999999999 420.6 468.9999999999999 410.7000000000001C468.8999999999999 410.5 468.8999999999999 410.4000000000001 468.8999999999999 410.2000000000001zM417.4000000000001 177.9C397.9000000000001 130.3 344.5 134.6 327.4000000000001 172.7C312.3 206 311.9000000000001 240.9 327.8 274.2C344.1 308.3 387.5 309.9 409.3 279C429.9000000000001 250.2 424.2 194.4 417.4000000000001 177.9zM122.6 142.6C115.1 143.9 89.6 145.9 88.9 170.4C88.5 184.3 96.7 193.4 108.7 196.2C133.1 202.1 158 206.1 182.4 210.9C191.3000000000001 212.9 189.8000000000001 206.5 190.2000000000001 201.4C191.6000000000001 168.4 164.1000000000001 142.2 122.6000000000001 142.6z" />
    <glyph glyph-name="affiliatetheme"
      unicode="&#xF36A;"
      horiz-adv-x="512" d=" M159.7 274.6C108.4 203.7 43.1 163.8 14 185.4C-15.2 207.1 2.8 282 54.2 352.9C105.5 423.8 170.8 463.7 199.9 442.1C229 420.5 211 345.5 159.7 274.6zM510.9 331.9C437.1 208.5 319 144.2 246.4 188.3C221.4 203.5 205.1 229.5 197.4 262.1C163.8 197.3 104.6 148.3 33.3 128.9C83.1 69.6 157.4 32 240.3 32C390.3 32 511.9 155.1 511.9 306.9C512 315.4 511.6 323.7 510.9 331.9z" />
    <glyph glyph-name="algolia"
      unicode="&#xF36B;"
      horiz-adv-x="448" d=" M229.3 329.4C180 329.4 140.1 289.5 140.1 240.2C140.1 190.9 180 151 229.3 151S318.5 190.9 318.5 240.2C318.5 289.5 278.5 329.4 229.3 329.4zM292 272.8L233.1 242.2C231.3 241.3 229.3 242.6 229.3 244.5V311C229.3 312.5 230.6 313.7 232 313.6C258.2 312.6 280.9 297.9 293.1 276.5C293.8 275.2 293.3 273.5 292 272.8zM389.1 480H58.9C26.4 480 0 453.6 0 421.1V91C0 58.4 26.4 32 58.9 32H389C421.6 32 447.9 58.4 447.9 90.9V421.1C448 453.6 421.6 480 389.1 480zM186.5 395.3C186.5 406.1 195.2 414.8 206 414.8H251.3C262.1 414.8 270.8 406.1 270.8 395.3V379.9C270.8 378.1 269.1 376.9 267.5 377.4C255.2 380.8 242.4 382.5 229.4 382.5C215.9 382.5 202.7 380.7 190 377C188.3 376.5 186.6 377.8 186.6 379.5V395.3zM102.1 358.3L111.3 367.5C118.9 375.1 131.2 375.1 138.8 367.5L146.5 359.8C147.6 358.7000000000001 147.5 356.8 146.2 355.8C140 351.3 134.1 346.4 128.6 340.9C123.2 335.5 118.2 329.6 113.8 323.5C112.8 322.2 110.9 322 109.8 323.2L102.1 330.9C94.5 338.4 94.5 350.7 102.1 358.3zM229.3 113.5C159.3 113.5 102.7 170.2 102.7 240.1S159.4 366.7000000000001 229.3 366.7000000000001C299.3 366.7000000000001 355.9 310.1 355.9 240.1C355.9 170.3 299.2 113.5 229.3 113.5z" />
    <glyph glyph-name="amazon"
      unicode="&#xF270;"
      horiz-adv-x="448" d=" M257.2 349.3C208.5 347.5 87.7 333.8 87.7 231.8C87.7 122.3 226 117.8 271.2 188.6C277.7 178.4 306.6 151.1 316.5 141.8L373.3 197.8S341 223.1 341 250.6V397.7C341 423 316.5 480 228.7 480C140.7 480 94 425 94 375.7L167.5 368.9C183.8 418.4 221.7 418.4 221.7 418.4C262.4 418.5 257.2 388.6 257.2 349.3zM257.2 262.5C257.2 182.5 173 194.5 173 245.3C173 292.5 223.5 302 257.2 303.1V262.5zM393.2 99C385.5 89 323.2 32 218.7 32S34.2 103.5 9.7 133C2.9 140.7 10.7 144.3 15.2 141.3C88.5 96.8 203 23.5 387.7 111C395.2 114.7 401 109 393.2 99zM433 96.8C426.5 81 417 70 411.8 65.8C406.3 61.3 402.3 63.1 405.3 69.6S424.6 116.1 418 124.6C411.5 132.9 381 128.9 370 127.8C359.2 126.8 357 125.8 356 128.1C353.7 133.8 377.7 143.6 393.5 145.6C409.2 147.4 434.5 146.4 439.5 139.9C443.2 134.8 439.5 112.8 433 96.8z" />
    <glyph glyph-name="amilia"
      unicode="&#xF36C;"
      horiz-adv-x="448" d=" M240.1 480C178.2 480 108.6 463.1 55.9 424.6C50.8 421.5 46.8 415.4 48.7 405.2C49.8 400.1 53.8 377.8 58.9 365.6C63 355.4 73.1 355.4 79.2 359.5C111.7 381.8 175.7 407.2 231.5 407.2C289.4 407.2 290.4 378.8 290.4 334.1V295.6C203 284.3 78.2 261 46.7 247.8C11.2 231.5 16.3 154.3 16.3 136S31.5 32 141.2 32C189 32 254.9000000000001 52.7 294.5 74.1V48.7C294.5 45.7 296.6 40.5000000000001 300.6 39.6C303.7000000000001 38.6 351.3 37.6 360.5 37.6S423 37.3 427 38.3C431.1 39.3 432.1 44.4 432.1 47.4V344C432 424.3 374.2000000000001 480 240.1 480zM152.2 152.3C152.2 164.5 149.2 195 170.5 205.2C194.8 218.4 245.6 234.6 290.3 238.7V132C268.9000000000001 118.8 241.6 107.6 211.2 107.6C158.4 107.6 152.3 141.1 152.2 152.3" />
    <glyph glyph-name="android"
      unicode="&#xF17B;"
      horiz-adv-x="448" d=" M89.6 307.5V191.7C89.6 176.3 77.5 164 62.1 164C46.8 164 32 176.4 32 191.7V307.5C32 322.6 46.8 335 62.1 335C77.2 335 89.6 322.6 89.6 307.5zM100.4 150.5C100.4 134.1 113.6 120.9 130 120.9H149.9L150.2 59.8C150.2 22.9 205.4 23.1999999999999 205.4 59.8V120.9H242.6V59.8C242.6 23.1 298.1 22.9999999999999 298.1 59.8V120.9H318.3C334.5 120.9 347.7 134.1 347.7 150.5V329.9H100.4V150.5zM348.4 339.6H99.3C99.3 382.4 124.9 419.6 162.9 439L143.8 474.3C141 479.2 148.1 482.3 150.5 478.1L169.9 442.5C204.8 458 244.9 457.2 278.2 442.5L297.5 478C300 482.3 307 479.1 304.2 474.2L285.1 439C322.8 419.6 348.4000000000001 382.4 348.4000000000001 339.6zM177.7 395.1C177.7 400.8 173.1 405.6 167.2 405.6C161.5 405.6 157 400.8 157 395.1S161.6 384.6 167.2 384.6C173.1 384.6 177.7 389.4 177.7 395.1zM291.1 395.1C291.1 400.8 286.5 405.6 280.9000000000001 405.6C275.0000000000001 405.6 270.4000000000001 400.8 270.4000000000001 395.1S275.0000000000001 384.6 280.9000000000001 384.6C286.5000000000001 384.6 291.1 389.4 291.1 395.1zM385.9000000000001 335C370.8 335 358.4000000000001 322.9 358.4000000000001 307.5V191.7C358.4000000000001 176.3 370.8 164 385.9000000000001 164C401.3 164 416.0000000000001 176.4 416.0000000000001 191.7V307.5C416.0000000000001 322.9 401.2000000000001 335 385.9000000000001 335z" />
    <glyph glyph-name="angellist"
      unicode="&#xF209;"
      horiz-adv-x="448" d=" M347.1 296.6C358.8 329.2 392.5 423.5 392.5 453.7C392.5 480.3 376.8 502.6 348.8 502.6C304.2 502.6 264.2000000000001 370.9 251.7 339.5C242 368 196.6 512 156.6 512C125.5 512 110.9 489.1 110.9 460.3C110.9 425 145.1 333.5 157.5 298.3C151.2 300.6 144.4 302.6 137.5 302.6C114.1 302.6 89.2 273.5 89.2 250C89.2 241.1 94.1 228.6 97.2 220.3C60.3 210.3 46.1 185.7 46.1 148.6C46 76.4 114.4 0 210.6 0C328.6 0 402 88.6 402 202.9C402 246 395.1 284.9 347.1 296.6zM311.7 404C315.7 416.3 332.8 468.3 348.8 468.3C357.4000000000001 468.3 359.7 459.4 359.7 452.3C359.7 433.2 321.1 327.7 312.6 304.3L278.6 310.3L311.7 404zM142.3 463.7C142.3 475.6 156.8 509.4 188.6 416.6L223.2 316.3C207.6 317.6 195.5 319.3 187.8 314.9C176.9 343.7000000000001 142.3 434.6 142.3 463.7zM140 268C169.3 268 207.1 173.4 207.1 160.6C207.1 155.5 202.2 149.2000000000001 196.5 149.2000000000001C175.6 149.2000000000001 119.6 226.1 119.6 246.9000000000001C119.7 254.6 132.3 268 140 268zM324.3 81.7C295.2 49.7 258 33.1 214.6 33.1C155.2 33.1 108.3 65.7 85.7 121.4C68.6 164.8 89.5 189.7 106.3 189.7C117.7 189.7 160.6 129.4 160.6 116.6C160.6 111.7000000000001 152.9 108.3 148.9 108.3C132.8000000000001 108.3 126.5 123.8 97.8 159.7C68.1 130 118.3000000000001 72.8 156.1 72.8C182.2 72.8 199.2 96.9999999999999 194.1 114.8C197.8 114.8 202.4 114.5 205.8 115.4C206.9 88.3 214.9 56 247.5 53.7C247.5 54.6 249.5 60.8 249.5 61.1C249.5 78.4999999999999 238.9 93.7 238.9 111.4C238.9 139.7 260.6 167.1 282.6 183.1C290.6 189.1 300.3 192.8 309.7000000000001 196.2C319.4000000000001 199.9 329.7000000000001 204.2 337.1 211.6C336 222.8 331.4000000000001 232.7 320.2000000000001 232.7C292.5000000000001 232.7 199.6000000000001 228.7 199.6000000000001 272.4C199.6000000000001 279.1 199.7000000000001 285.5 217.0000000000001 285.5C249.3000000000001 285.5 331.3000000000001 277.5 355.3000000000001 256.4C373.4000000000001 240.3 379.6000000000001 143.2 324.3000000000001 81.7zM225.7 207.7C235.4 204.6 245.4 203.7 255.4 201.7C248 196.3 241.4 189.7 235.1 182.6C232.3 191.1 228.9 199.4 225.7 207.7z" />
    <glyph glyph-name="angrycreative"
      unicode="&#xF36D;"
      horiz-adv-x="640" d=" M640 273.8L636.8 245.6L602.3 243.3L600.3 225.2L634.8 227.5L631.5999999999999 199.3L597.1999999999999 197.1L594.9 177L629.3 179.2L626.3 153.1L561.5999999999999 149L574.3 262.2L527 146.8L495.1 144.8L471.3 262.6L501.6 264.6L515.2 185.2000000000001L546.9000000000001 267.6L640.0000000000001 273.8000000000001zM426.8 140.5L455.1 142.3L468 262.4L439.6 260.5L426.8 140.5zM162 123.9L142.6 159.9L139.1 122.5L110.9 120.8L113.6 149.9C102.6 131.9 81.6 115.6 56.7 114.1C23.9 112.1 -3 135 0.3 172.3C2.9 201.6 27 235.1 67.8 237.7000000000001C105.5 240.1 115.4 214.5000000000001 119.1 208.9L121.9 239.7000000000001L160.8 242.2000000000001C180.9 243.5000000000001 199.5 238.5000000000001 203.3 218.5000000000001L205.9 245.1000000000001L270.7 249.3000000000001L268 221.4000000000001L231.6 219.0000000000001L229.9 201.1000000000001L266.3 203.4000000000002L263.6 175.5000000000002L227.2 173.2000000000002L225.3 153.3000000000002L261.6 155.6000000000002L259.5 134.8000000000002L314.5 252.0000000000002L338.3 253.6000000000002L370.4 143L379.3 228.6L357 227.2000000000001L359.8999999999999 255.1L434.8999999999999 260L431.8999999999999 232L407.5999999999999 230.4L397.8999999999999 138.5L339.8999999999999 134.8L335.5999999999999 150.4L296.2 147.9L288.2 131.6L162 123.9zM117.7 194.1L91.3 192.4C84.6 204.8 76.9 209 65 208.2C46 207 31.7 190.7 30.4 174.9C29 158.9 37.7 142.4 59.1 143.7C71.9 144.5 80.4 152.3 88 162.6L115 164.3L117.7 194.1zM173.8 201.8C175 214.6999999999999 166.2 215.4 147.7 214.1999999999999L145 185.6999999999999C159.2 186.5999999999999 172.5 187.8 173.8000000000001 201.8zM194.9 131L200.7 191C195.7 177.5 186 169.8999999999999 172.8 164.3999999999999L194.9 131zM330.3 176L322.4000000000001 213.8L306.6 174.5L330.3 176zM160.2 250.5999999999999L155.9 268.0999999999999L116.3 265.4999999999999L108.2 247.2999999999999L76.3 245.1999999999999L133.3 367.0999999999999L157.2 368.6999999999999L187.9 266.6999999999999L197.8 371.3999999999999L224.8 373.1999999999999L262.6 309.5999999999999L269.1 376.1999999999999L297.6 378.0999999999999L293.6 336.8999999999999C301 350.3999999999999 316.5 381.5999999999999 357.2000000000001 384.3999999999999C397.7000000000001 387.1999999999999 409.6 355.0999999999999 410.6 354.0999999999999L413.9000000000001 386.0999999999999L453.2 388.7999999999999C465.9 389.6999999999999 481.0000000000001 388.4999999999999 489.5000000000001 379.0999999999999L485.1000000000001 390.9999999999999L517.3000000000001 393.1999999999999L530.2 349.9999999999999L553.2 395.6999999999999L584.2 397.8999999999999L540.6 319.4999999999999L535.8000000000001 275.1999999999999L507.4000000000001 273.2999999999999L512.2 317.5999999999999L496.4 360.5999999999999C497.4 338.2999999999999 487.2 320.4999999999999 464.4 310.9999999999999L489.6 272.1999999999999L453.2 269.7999999999999L434.0000000000001 306.5999999999999L430.0000000000001 268.2999999999999L401.6000000000001 266.3999999999999L404.9000000000001 297.8999999999999C398.2000000000001 288.5999999999998 385.2000000000001 262.4999999999999 345.3000000000001 259.8999999999999C319.1000000000001 258.1999999999998 299.7000000000001 270.1999999999998 289.9000000000001 299.0999999999999L285.9000000000001 258.7999999999999L260.9000000000001 257.1999999999998L223.3000000000001 320.4999999999999L217.0000000000001 254.2999999999999L160.2000000000001 250.5999999999999zM436.8000000000001 332.7C447.0000000000001 333.3999999999999 454.3000000000001 334.7999999999999 458.4000000000001 336.9999999999999C462.9000000000001 339.3999999999999 465.4000000000001 343.3999999999999 466.0000000000001 349.0999999999999C466.6000000000001 354.3999999999999 465.4000000000001 357.8999999999999 462.6000000000001 359.4999999999999C459.0000000000001 361.5999999999999 452.0000000000001 362.3 439.7000000000002 361.4999999999999L436.8000000000002 332.7zM327.7 298C333.3 292.1 340.4 289.5 349 290.1C353.7 290.4 358.1 291.9 362.3 294.2C367.8 297.2 372.9000000000001 302.2 377.4000000000001 308.5L343.2000000000001 306.2L345.6 330.1L408.7000000000001 334.4L409.9000000000001 346.4L378.7000000000001 344.3C374.6 348 370.9000000000001 350.9 367.6 352.4C363.6 354.1 359.5 355.2000000000001 355.4000000000001 354.9C347.4000000000001 354.4 340.1 351.3 333.4000000000001 345.7000000000001C325.7000000000001 339.3 321.4000000000001 331.2000000000001 320.5000000000001 321.3C319.4000000000001 311.7000000000001 321.9000000000001 304 327.7000000000001 298zM126.4 289.8L150.2 291.4L141.9 329L126.4 289.8z" />
    <glyph glyph-name="app-store-ios"
      unicode="&#xF36F;"
      horiz-adv-x="448" d=" M223.6 431.7C129 431.7 52.5 355 52.5 260.5C52.5 165.9 129 89.3 223.6 89.3S394.8 166 394.8 260.5C394.8 355 318.1 431.7 223.6 431.7zM193.6 339.9C198 344.8 202.7 343.5 208.5 340.3C216 336.1 218.4 333 217.7 328.5C217.3 325.7 211.8 316.2 211.8 316.8C209.7 313.2000000000001 207.8 310.4 207.6 310.4C207.1 310.4 185 323.9 185 324.8C185.1 325.8 191.9 337.9 193.6 339.9zM99.5 248.4C98.9 270.2 99 269.7 99.2 274.8C111.3 274.9 150.2 275.2 150.2 274.6C150.2 274 138 253.2 135.3 248.4H99.5zM122.7 180.7C115.3 174 109 168.5 108.9 168.5C108.1 168.5 108.1 169.4 109 172.4C120.2 215.4 120.3 215.3 121 215.1C122 214.9 143.7 200.2 143.7 199.8C143.6 199.3 123.1 181.1 122.7 180.6999999999999zM123.9 221C123.7 221.2 124.1 222.2 124.8 223.3C124.9 223.4 182.7 320 182.9 320.1C183.5 320.2000000000001 206.1 306.4000000000001 206.1 305.9000000000001L148.1 205.6C147.7 205.4 124.9 220 123.9 221zM178.3 248.5C178 248.9 192.2 274.4 192.5 274.8H253.3C253.6 274.3 267.6 249.2 267.5 248.7C267.2 248.3 178.5 248.1 178.3 248.5zM274.2000000000001 249.6C273.2000000000001 250.2000000000001 257.6 276.8 227.1000000000001 329.4000000000001C207.7000000000001 362.8000000000001 208.3000000000001 361.9000000000001 207.5000000000001 363.8000000000001C206.0000000000001 367.4000000000001 207.1000000000001 371.9000000000001 210.1000000000001 374.2000000000001C211.9000000000001 375.6 218.9000000000001 379.7000000000001 220.8000000000001 380.4000000000001C222.9 381.2000000000001 226.1000000000001 381.1 228.0000000000001 380C231.8000000000001 378.1 230.6 378.9000000000001 273.3 305.1C291.9000000000001 272.9000000000001 297.4000000000001 263.2000000000001 297.4000000000001 262.5C297.4000000000001 261.8000000000001 297.6 261.9000000000001 287.2000000000001 256.1C280.9000000000001 252.8 274.9000000000001 249.1 274.2000000000001 249.6zM290.2000000000001 220.8C288.9000000000001 222.2 277.3000000000001 242.7 277.4000000000001 243.4000000000001C277.6 244.2000000000001 299.7000000000001 257.1 300.6 256.9000000000001C301.4000000000001 256.7000000000001 308.1 244.8 312.1 237.8C314.3 234.1 314.3 234 313.5 233.2C312.8 232.6 302.1 226.4 302.1 226.4C296.2000000000001 223.1 291.3 220.3 291.2000000000001 220.2C291.0000000000001 220.2 290.6 220.4 290.2000000000001 220.8zM327.0000000000001 168.5C326.2000000000001 168.5 325.6000000000001 169.4 325.0000000000001 171.6C320.7000000000001 188.3 306.1000000000001 185.6 297.5000000000001 202.7000000000001C294.3000000000001 209.0000000000001 294.1000000000001 213.9 296.9000000000001 217.0000000000001C297.8 218.0000000000001 304.2000000000001 221.9 310.9000000000001 225.6000000000001C315.2000000000001 228.0000000000001 318.9000000000001 226.9000000000001 323.4000000000001 222.1000000000001C329.4000000000001 215.6000000000001 332.5000000000001 207.7000000000001 333.6 196.3000000000001C335.2000000000001 178.5000000000001 327.9000000000001 168.5000000000001 327 168.5000000000001zM346.2000000000001 248.2C345.7000000000001 247.3 315.2000000000001 247.4 311.9000000000001 247.7C311.3 248.8 296.8 274.5 296.6 275.3C296.4000000000001 276 304.4000000000001 275.9 346.3 275.7C346.4000000000001 274.7 346.6 248.9 346.2 248.2zM345.2000000000001 480H102.8C45.9 480 0 434.1 0 377.2V134.8C0 77.9 45.9 32 102.8 32H345.2C402.2 32 448 77.9 448 134.8V377.2C448 434.1 402.1 480 345.2 480zM223.6 68C117.3 68 31.1 154.2 31.1 260.5S117.3 453 223.6 453S416.1 366.8 416.1 260.5S329.9 68 223.6 68z" />
    <glyph glyph-name="app-store"
      unicode="&#xF36E;"
      horiz-adv-x="512" d=" M139.7 174.9C139.7 174.1 112 149.6 111.4 149.1C101.4 140.1 93 132.7 92.7 132.7C91.7 132.7 91.7 133.9 92.8 138C107.9 195.9 108 195.8 109 195.5C110.4 195.2 139.8 175.5 139.7 174.9zM192.5 336.9C192.3 336.9 114.3 206.7 114.2 206.5C113.2 205 112.7 203.6 113 203.4C114.4 202.1 145.1 182.4 145.5 182.6L223.7 317.8C223.7 318.4 193.3 337.1 192.5 336.9zM205.4 276C205.1 275.4 186 241.1 186.3 240.5C186.7 239.9 306.2000000000001 240.2 306.4 240.8C306.6 241.5 287.6 275.4 287.3 276H205.4zM226.1 323.8C226.3 323.8 228.8 327.7 231.7 332.5C231.7 331.7 239.1 344.5 239.6 348.2C240.4 354.3 237.2 358.3 227.1 364.0999999999999C219.4 368.5 213 370.3 207.1 363.5999999999999C204.7 360.9 195.6 344.7 195.6 343.0999999999999C195.6 342 225.3 323.9 226.1 323.8zM102.7 240.4H128.5C132.2 246.8 148.6 275 148.6 275.7C148.6 276.5 96.1 276 79.8 276C79.5 269 79.4 269.8 80.2 240.4H102.7zM412.9 277.1C356.4 277.3 345.7 277.6 345.9 276.6C346.1 275.5 365.7 240.9 366.5 239.3C370.9 239 412.1 238.9 412.7 240C413.3 241 412.9 275.8 412.9 277.0999999999999zM346.9 259.5C346.9 260.5 339.5 273.5 314.4 316.9C256.9 416.4 258.5 415.2 253.3 417.8C250.6 419.2 246.3 419.4 243.5 418.3C240.9 417.3 231.5 411.8 229.1 409.9C225.1 406.8 223.6 400.7 225.7 395.9C226.8 393.3 226 394.6 252.1 349.5C293.2 278.6 314.3 242.8 315.6 241.9C316.6 241.3 324.7 246.2 333 250.9C347.1 258.6 346.8999999999999 258.5 346.8999999999999 259.5zM496 256C496 119 385 8 248 8S0 119 0 256S111 504 248 504S496 393 496 256zM475.9 256C475.9 381.9 373.9 483.9 248 483.9S20.1 381.9 20.1 256S122.1 28.1 248 28.1S475.9 130.1 475.9 256zM381.9 205C375.9 211.5 370.9 212.9 365.1 209.7C356.1 204.7 347.5 199.4 346.3 198.1C342.5 194 342.8 187.4 347.1 178.9C358.7 155.9 378.4 159.4 384.2 137C385 134.1 385.7 132.8 386.9 132.8C388.1 132.8 398 146.3 395.7 170.3C394.2 185.6 390 196.2 381.9 205zM368.7 220C369.7 221 369.7 221.1 366.8 226.1C361.3 235.6 352.3 251.6 351.3 251.8C350.1 252 320.2 234.6 320 233.6C319.8 232.7000000000001 335.5 205.1 337.3 203.2000000000001C337.8 202.7000000000001 338.4000000000001 202.3000000000001 338.6 202.4C338.8 202.5000000000001 345.5 206.3 353.4000000000001 210.8C353.3 210.8 367.8 219.2 368.7000000000001 220z" />
    <glyph glyph-name="apper"
      unicode="&#xF370;"
      horiz-adv-x="640" d=" M42.1 272.9C64.3 272.9 71.1 270.1 75.6 258.3H76.4V281.2000000000001C76.4 292.5 71.6 296.6 58.5 296.6C47.2 296.6 44.1 294.1 43.4 283.8H4.8C5.1 297.7000000000001 6.3 302.9 10.6 308.2000000000001C17.9 317 29.5 320 56.7 320C89.7 320 103.8 315 110.6 301.1C112.6 296.8 114.6 285.5 114.6 277.4V201.1H76.3L77.6 220.2000000000001H76.6C71.3 204.6 63 199.8000000000001 41.1 199.8000000000001C10.8 199.8000000000001 0 209.9000000000001 0 237.1000000000001C0 262.3000000000001 12.3 272.9000000000001 42.1 272.9000000000001zM59.2 224.8C72.3 224.8 76.1 227.8 76.1 238.2C76.1 247.3 71.8 249.8 56.5 249.8C43.4 249.8 38.6 246.8 38.6 237.7C38.5 227.3 42.3 224.8 59.2 224.8zM137 319.7000000000001H175.3L173.8 299.1H174.6C183.7 316.2000000000001 190.5 320 212.1 320C226.5000000000001 320 236.8 317 243.6 310.9000000000001C253.4000000000001 302.3000000000001 256.4000000000001 290.5 256.4000000000001 262.8000000000001C256.4000000000001 232.8000000000001 253.4000000000001 219.7000000000001 244.3000000000001 209.9C237.5000000000001 202.6 227.9000000000001 199.8 211.1 199.8C190.7 199.8 181.9 205.3 177.3 221H176.5V150.7H137V319.7zM217.9 259C217.9 286.5 214.6 291.5 197.2 291.5C180.3 291.5 176.5 286.5 176.5 262.8C176.5 234.8 180 229.3 197.7 229.3C214.1 229.3 217.9 234.9000000000001 217.9 259zM275.8 319.7H314.1L312.6 299.1H313.4000000000001C322.5000000000001 316.2 329.3 320 350.9000000000001 320C365.3 320 375.6 317 382.4000000000001 310.9C392.2000000000001 302.3 395.2000000000001 290.5 395.2000000000001 262.8C395.2000000000001 232.8 392.2000000000001 219.7 383.1 209.9C376.3 202.6 366.7000000000001 199.8 349.8 199.8C329.4000000000001 199.8 320.6 205.3 316 221H315.2V150.7H275.7V319.7zM356.7000000000001 259C356.7000000000001 286.5 353.4000000000001 291.5 336.0000000000001 291.5C319.1000000000001 291.5 315.3000000000001 286.5 315.3000000000001 262.8C315.3000000000001 234.8 318.8000000000001 229.3 336.5000000000001 229.3C352.9000000000001 229.3 356.7000000000001 234.9000000000001 356.7000000000001 259zM410.5000000000001 262.8C410.5000000000001 288.2000000000001 413.8000000000001 300.6 422.8000000000001 308.6C431.6000000000001 316.7000000000001 445.0000000000001 319.9000000000001 467.9000000000001 319.9000000000001C510.7000000000001 319.9000000000001 523.6000000000001 307.1 523.6000000000001 264.2000000000001V253.1H448.3000000000002C448.0000000000001 251.1 448.0000000000001 249.1 448.0000000000001 248.3C448.0000000000001 231.4000000000001 452.5000000000001 226.4000000000001 468.1000000000001 226.4000000000001C482.0000000000001 226.4000000000001 486.0000000000001 229.4000000000001 486.0000000000001 240.3H523.5000000000001V238C523.5000000000001 228.2 521.0000000000001 219.1 516.7000000000002 213.3C509.4000000000001 203.5 497.1000000000001 199.7 472.4000000000001 199.7C444.9000000000002 199.7 430.8000000000002 203 421.8000000000002 212C413.3000000000002 220.5 410.5000000000001 233.3 410.5000000000001 262.8zM486.9000000000001 274.4C486.6000000000001 276.2000000000001 486.6000000000001 277.7000000000001 486.6000000000001 278.2000000000001C486.6000000000001 290.5 483.3000000000001 292.8 467.0000000000001 292.8C452.6000000000001 292.8 449.9000000000001 289.8 448.9000000000001 277.7000000000001L448.6 274.4H486.9zM542.5000000000001 319.7H580.8000000000001L579.0000000000001 299.8H579.7000000000002C586.5000000000001 314.7 594.1000000000001 320 609.4000000000002 320C620.2000000000002 320 628.5000000000002 316.7 632.8000000000002 310.7C638.1000000000001 303.4 639.6000000000001 296.3 639.6000000000001 276.7C639.6000000000001 275.2 639.6000000000001 271.7 639.8000000000002 267.4H604.8000000000002C605.1000000000001 269.2 605.1000000000001 270.7 605.1000000000001 271.4C605.1000000000001 286.8 603.1000000000001 290.8 594.8000000000002 290.8C588.5000000000002 290.8 584.0000000000002 287.5 581.7000000000002 281.5C580.7000000000002 278.5 580.7000000000002 277.2 580.7000000000002 269.2V201.1999999999999H542.4000000000002V319.7z" />
    <glyph glyph-name="apple"
      unicode="&#xF179;"
      horiz-adv-x="448" d=" M247.2 374.4C241 372.5 231.9 370.9 219.3 369.8C220.4 426.5 249.2 466.4 307.3 479.9C316.6 438.3 281.2 385.8 247.2 374.4zM368.5 301.7C374.9 311.1 385.1 321.6 399.1 333.4C376.8 361 351 377.7 314 377.7C278.6 377.7 248.8 359.5 227 359.5C208.5 359.5 175.1 375.6 142.5 375.6C72.9 375.6 36 307.5 36 236.6C36 157.8 95.7 32 156.2 32C180 32 201.4 50 229.7 50C259 50 282.5 32.8 310 32.8C356 32.8 398.6 110.3 412 152.5C365.2 166.8 327.6 242.7 368.5 301.7z" />
    <glyph glyph-name="asymmetrik"
      unicode="&#xF371;"
      horiz-adv-x="576" d=" M517.5 202.8C556.3 242.8 575.6 282.8 576 318.9C576.8 384.4 516.6 437.1 406.6 453.9C277.9 473.6 118.1 438.4 0 371.5C52 398 110.6 419.7 170.7 429.7C245.2 450.2 323.7 455.1 392 444.5C544.5 420.7 588.8 317 490.8 212.8C480.6 202 468.8 191.7 455.8 182.2L304.9 408.6L114.7 123.1C49.1 152.5 38.2 213.3 95.6 274.3C116.4 296.5 143.9 316.2000000000001 175.1 332.4C195.1 344.6 214.8 355 237.1 363.1C172 342.8 114.4 310.2 75.5 270.2C47.8 241.6 34.1 213.1 33.8 187.3C33.3 152.1999999999999 57.2 122.1999999999999 102.2 104.3L67.7 52.6H169.3L191.3 86.9999999999999C213.5 85.9999999999999 236.6 86.9999999999999 259.9 89.6999999999999L237.1 52.5999999999999H372.6L340 105.7C358.6 111 376.9 117.2 394.5 124.4L440.4 52.6H542L468.6 163C487.1 175.1 503.6 188.5 517.5 202.8zM329.9 122.3L304.9 162.9L272.2 109.6C248.8 106.1 225.5 104.5 203 105.2000000000001L304.9 264.5000000000001L383.6 141.5000000000001C366.4 134.1000000000001 348.3 127.6000000000001 329.9 122.3000000000001z" />
    <glyph glyph-name="audible"
      unicode="&#xF372;"
      horiz-adv-x="640" d=" M640 312.1V258.1L320 58.1L0 258V312L320 112L640 312.1zM445.5 240.1L492.6 269.5C455.4 325.3 391.9000000000001 362.1 319.9000000000001 362.1C247.9000000000001 362.1 184.4 325.4000000000001 147.3000000000001 269.7000000000001H147.6000000000001C150.1000000000001 272 152.7000000000001 274.2000000000001 155.3000000000001 276.4C245.0000000000001 350.8 374.7000000000001 334.5 445.5 240.1zM225.4 221.3C242.3 233.2 261.9 240 282.8 240C317.2 240 348 221.6 369.2000000000001 192.4L414.6 220.8C393.7000000000001 250.7 359 270.3 319.8 270.3C280.9000000000001 270.3 246.4 250.9 225.4 221.3zM103.6 350.9C235.4 455.2 421.8 427.3 521.1 288.8L521.8000000000001 287.8L570.6 318.2000000000001C517.1 399.9 424.8 453.9 319.9 453.9C216.4 453.9 123.3 400.4 69.4 318.3C79.3 328.8 92.1 341.8 103.6 350.9zM570.6 318.2z" />
    <glyph glyph-name="avianex"
      unicode="&#xF373;"
      horiz-adv-x="512" d=" M453.1 480H141.1C102.2 480 64.9 448.8 57.8 410.3L1.2 101.7C-5.9 63.2 19.9 32 58.9 32H370.9C409.8 32 447.1 63.2 454.2 101.7L510.9 410.2C517.9 448.8 492.1 480 453.1 480zM394.9000000000001 132.7L362.9000000000001 119.2L247.5000000000001 229.2C232.8000000000001 219.2 218.3000000000001 209.7 205.8 202.1L227.9 137.9L210 125.2L169.4 186.2L117 234.3L132.7 249.7L190.7 218.6C200 229.1 211.5 241.2 223.5 253.5L203 283.1L134.2 382.9L153 411.8L161.9 416.6L265 304.2L269.9 299.7C289.3 318.5 303.7 332.1 303.7 332.1C311.4 338.6 325.2 335 334.4 324.2C343.4 313.7 345 299.5 337.1 292.9C335.3 291.6 321.6 281.5 301.8 267.3L306.3 260L401.2 140.6L394.8999999999999 132.7z" />
    <glyph glyph-name="aws"
      unicode="&#xF374;"
      horiz-adv-x="640" d=" M282.6 463.8L357.4000000000001 441.6L357.3 330.8L282.6 355.7000000000001V463.8zM376.8 330.8L451.3 355.8L451.6 463.8L376.8 441.6V330.8zM366.6 497L297.8 475.5L366.7 457L436.3 475.5L366.6 497zM471 355.7L545.7 330.8L545.8000000000001 441.6L471 463.8V355.7zM565.2 441.6V330.8L639.7 355.8L640 463.8L565.2 441.6zM555 497L486.2 475.5L555.1 457L624.7 475.5L555 497zM0 197.8L74.7 172.9L74.8 283.7000000000001L0 305.9V197.8zM94.2 172.9L168.7 197.9L169 305.9000000000001L94.2 283.7000000000001V172.9zM84 339.1L15.2 317.6L84.1 299.1L153.7 317.6L84 339.1zM188.4 197.8L263.1 172.9L263.2000000000001 283.7L188.4 305.9V197.8zM282.6 172.9L357.1 197.9L357.4000000000001 305.9L282.6 283.7V172.9zM272.4000000000001 339.1L203.6 317.6L272.5 299.1L342.1 317.6L272.4000000000001 339.1zM94.2 39.9L168.9 15L169 125.8L94.2 148V39.9zM188.4 15L262.9 40L263.2 148L188.4 125.8V15zM178.2 181.2L109.4 159.7L178.3 141.2L247.9 159.7L178.2 181.2z" />
    <glyph glyph-name="bandcamp"
      unicode="&#xF2D5;"
      horiz-adv-x="496" d=" M248 504C111 504 0 393 0 256S111 8 248 8S496 119 496 256S385 504 248 504zM296.2 177.9H115.2L199.9 334H380.9L296.2 177.9z" />
    <glyph glyph-name="behance-square"
      unicode="&#xF1B5;"
      horiz-adv-x="512" d=" M186.5 219C186.5 199.7 172.5 193.6 155.3 193.6H110.2V246.5H156.2C174.8 246.4 186.5 238.7 186.5 219zM178.8 301.3C178.8 319 165.1 323.2000000000001 149.9 323.2000000000001H110.3V278.4000000000001H153C168.1 278.4000000000001 178.8 285 178.8 301.3000000000001zM311.1 278.1C292.8 278.1 280.6 266.7000000000001 279.4000000000001 248.4000000000001H341.6C339.9000000000001 266.9000000000001 330.3 278.1 311.1 278.1zM448 432V80C448 53.5 426.5 32 400 32H48C21.5 32 0 53.5 0 80V432C0 458.5 21.5 480 48 480H400C426.5 480 448 458.5 448 432zM271.7 327H349.5V345.9H271.7V327zM228.7 216.7C228.7 240.8 217.3 261.6 193.7 268.3C210.9 276.5 219.9 286 219.9 305.3C219.9 343.5 191.4 352.8 158.5 352.8H68V160.8H161.1C196 161 228.7 177.6999999999999 228.7 216.6999999999999zM380 231.5C380 272.6 355.9 306.9 312.4 306.9C270 306.9 241.3 275.1 241.3 233.3C241.3 190 268.6 160.3 312.4 160.3C345.6 160.3 367.1 175.2 377.5 207.1H343.8C340.1 195.2000000000001 325.2 189 313.6 189C291.2000000000001 189 279.5 202.1 279.5 224.3H379.7C379.8 226.6 380 229.1 380 231.5z" />
    <glyph glyph-name="behance"
      unicode="&#xF1B4;"
      horiz-adv-x="576" d=" M232 274.8C263.8 290 280.4 313 280.4 348.8C280.4 419.4 227.8 436.6 167.1 436.6H0V82.2000000000001H171.8C236.2 82.2000000000001 296.7000000000001 113.1 296.7000000000001 185.1C296.7000000000001 229.6 275.6 262.5 232.0000000000001 274.8zM77.9 376.1H151C179.1 376.1 204.4 368.2 204.4 335.6C204.4 305.5 184.7 293.4 156.9 293.4H77.9V376.1zM161.2 142.4H77.9V240H162.8C197.1 240 218.8 225.7 218.8 189.4C218.8 153.6 192.9 142.4 161.2 142.4zM519.7 383.1H376V418H519.7V383.1zM576 206.8C576 282.7000000000001 531.6 346 451.1 346C372.9000000000001 346 319.8 287.2 319.8 210.2C319.8 130.3 370.1 75.5 451.1 75.5C512.4 75.5 552.1 103.1 571.2 161.8H509C502.3 139.9 474.7 128.3 453.3 128.3C412 128.3 390.3 152.5 390.3 193.6H575.4C575.6999999999999 197.8 576 202.3 576 206.8zM390.4 238C392.7 271.7 415.1 292.8 448.9 292.8C484.3 292.8 502.1 272 505.1 238H390.4z" />
    <glyph glyph-name="bimobject"
      unicode="&#xF377;"
      horiz-adv-x="448" d=" M416 480H32C14.4 480 0 465.6 0 448V64C0 46.4 14.4 32 32 32H416C433.6 32 448 46.4 448 64V448C448 465.6 433.6 480 416 480zM352 222.6C352 173.2000000000001 340.6 140 248.2 140H231.3C187.2 140 168.9 154.9 160.9 178.8H160V144H96V376H160V301.3H161.1C165.7 331.8 200.8 340.1 230.8 340.1H248.1C340.5 340.1 351.9000000000001 307 351.9000000000001 257.6V222.6zM288 251.5V228.6C288 206.9 284.6 194.8 249.6 194.8H204.3C175.4 194.8 160.2 201.3 160.2 230.5V249.5C160.2 278.8 175.4 285.2 204.3 285.2H249.6C284.6 285.4 288 273.2 288 251.5z" />
    <glyph glyph-name="bitbucket-square"
      unicode="&#xF172;"
      horiz-adv-x="448" d=" M313.9 374.9C289.3 350.3 159.9 350.7000000000001 134.1 374.9C152.4 401.3 293.8 401.5 313.9 374.9zM267.3 269.2C270.2 245.4 251.7 222.2 227.9 220C204.0999999999999 217.9 181.5 237.4 180.5 261.2C179.6999999999999 279.3 190.5999999999999 296.5 206.8 303.7C232.4 315.3 263.8 296.9 267.3 269.2zM245.7 265.1C245.7 280.3 226.8 290.8 213.7 282.8C198.5 275.8 198.5 251 214.1 244.2C227.9 235.9 247.8 248.7 245.7 265.1zM448 432V80C448 53.5 426.5 32 400 32H48C21.5 32 0 53.5 0 80V432C0 458.5 21.5 480 48 480H400C426.5 480 448 458.5 448 432zM322.9 193.5C264.6 155.1 183.2 155.1 125.1 193.5C120.8 191.3 121.9 192.6 120.4 188.6C123.5 169.5 126.6 147.6 131.5 128.9C149.3 98.2000000000001 241.1 80.4 302.4 114.3C322.7 125.4 319.6 153.9 325 173C325.3 179.7 332.1 190.8 322.9 193.5zM358.2 381C316.7 433.4 94 425.8 86.7 371.4C86.8 370.7000000000001 104.7 228.6 118.5 217.9C185.3 166.5 331.7 191.9 338.7 232.7C363.6 375.5 364 373.5 358.2 381z" />
    <glyph glyph-name="bitbucket"
      unicode="&#xF171;"
      horiz-adv-x="448" d=" M365.2 139.7C357.6 113 361.9 73.2 333.6 57.6C248 10.2 119.7 35.2 94.8 78C88 104.2 83.6 134.7 79.3 161.4C81.4 166.9 79.8 165.2 85.8 168.2C167 114.5 280.7 114.5 362.3 168.2C375 164.5 365.4000000000001 149 365.2 139.7zM209.5 293.2C188.2 283.4 188.2 248.8 210 239.2C229.4 227.5 257.2 245.5 254.2 268.4C254.2 289.6 227.8 304.4 209.5 293.2zM384.3 223.1C374.5 166.1 169.8 130.5 76.5 202.4C57.1 217.3 32.1 416 32 417C42.1 493 353.5 503.7 411.5 430.4C419.7 419.8 419 422.6 384.3 223.1zM284.5 274.1C279.6 312.8 235.7 338.4000000000001 200 322.4000000000001C177.4 312.3000000000001 162.1 288.3000000000001 163.2 263C164.6 229.7000000000001 196.2 202.5 229.5 205.5C262.7 208.4 288.6 240.8 284.5 274.1zM349.6 421.9000000000001C321.5 459.0000000000001 123.9 458.7 98.2 421.9000000000001C134.3 388.1 315.3 387.5 349.6 421.9000000000001z" />
    <glyph glyph-name="bitcoin"
      unicode="&#xF378;"
      horiz-adv-x="512" d=" M504 256C504 119.033 392.967 8 256 8S8 119.033 8 256S119.033 504 256 504S504 392.967 504 256zM362.349 291.33C367.286 324.329 342.158 342.069 307.799 353.903L318.945 398.605L291.732 405.386L280.881 361.862C273.727 363.645 266.379 365.326 259.078 366.992L270.007 410.802L242.809 417.583L231.656 372.897C225.734 374.246 219.9209999999999 375.579 214.279 376.981L214.31 377.121L176.78 386.491L169.541 357.429S189.732 352.802 189.3059999999999 352.516C200.3279999999999 349.765 202.3199999999999 342.472 201.9859999999999 336.691L189.2899999999999 285.766C190.0499999999999 285.572 191.0339999999999 285.293 192.119 284.8589999999999C191.2119999999999 285.084 190.243 285.332 189.243 285.572L171.447 214.2339999999999C170.098 210.8859999999999 166.68 205.8639999999999 158.976 207.7699999999999C159.2469999999999 207.375 139.196 212.7069999999999 139.196 212.7069999999999L125.6859999999999 181.56L161.0999999999999 172.733C167.6879999999999 171.0819999999999 174.1449999999999 169.3539999999999 180.5 167.727L169.238 122.514L196.4199999999999 115.733L207.5729999999999 160.466A1038.209 1038.209 0 0 1 229.26 154.839L218.1449999999999 110.3159999999999L245.3579999999999 103.5349999999999L256.6199999999999 148.6629999999999C303.0239999999999 139.8819999999999 337.9189999999999 143.4239999999999 352.6059999999999 185.3899999999999C364.4419999999999 219.1799999999999 352.0169999999999 238.6709999999999 327.6019999999999 251.3809999999999C345.3819999999999 255.4789999999999 358.7759999999999 267.1729999999999 362.3489999999999 291.3299999999999zM300.172 204.151C291.762 170.3609999999999 234.864 188.6279999999999 216.417 193.208L231.361 253.107C249.807 248.504 308.961 239.39 300.172 204.151zM308.589 291.818C300.916 261.082 253.558 276.698 238.196 280.526L251.744 334.853C267.107 331.025 316.58 323.88 308.589 291.818z" />
    <glyph glyph-name="bity"
      unicode="&#xF379;"
      horiz-adv-x="496" d=" M78.4 444.8C173.8 534 324.5 536 421.5 441C435.8 426.9 415.1 403.9 399.1 419.5C314.3 501.9 183.3 499.8 100.2000000000001 422.7C83.9000000000001 407.6 63.7000000000001 431 78.4000000000001 444.8zM177.3 26.2C196.6 20.5 206.6 49.8 185.2 56.2C73 90.1 9.4 205.9 37.7 317.2C42.7 336.8 12.8 345.3 7.5 324.3C-24.6 196.9 48.6 64.5 177.3 26.1999999999999zM325.4 28.2C447.3 68.4 518.3 195.1 489.8 319.2C485.3 338.9 454.9 333 459.8 311.3C483.9999999999999 203.6 422.7 93.4 316.6 57.9C295.4 50.9 306.2 21.9 325.4 28.2zM262.5 107.2L262.7 179C262.7 187.2 256.1 193.8 247.9 193.8C239.7 193.8 233.1 187.1 233.1 179L232.9 107.2C232.9 99 239.5 92.4 247.7 92.4S262.5 99 262.5 107.2zM333.5 376.2C335.6 285.3 338.2 244.3 248 243.7C155.5 244.4 161.1 288 162.5 376.2C162.5 398 130 395.8 130 376.2V304.6C130 235.3 190.7 213.7 248 214.5C305.3 213.7 366 235.3 366 304.6V376.2C366 395.8 333.5 398 333.5 376.2z" />
    <glyph glyph-name="black-tie"
      unicode="&#xF27E;"
      horiz-adv-x="448" d=" M0 480V32H448V480H0zM316.5 154.8L224 66.1L131.5 154.8L196 338.8L131.5 425.4H316.4L252 338.8L316.5 154.8z" />
    <glyph glyph-name="blackberry"
      unicode="&#xF37A;"
      horiz-adv-x="512" d=" M166 395.1C166 371.7 149.6 346 93.5 346H23.4L44.4 434.8H112.2C154.3 434.8 166 411.5 166 395.1zM292.2 434.8H224.4L205.7 346H275.8C329.6 346 345.9 371.7 345.9 395.1C346 411.5 334.3 434.8 292.2 434.8zM88.8 303.9H21L0 215.1H70.1C126.2 215.1 142.6 238.5 142.6 264.2000000000001C142.6 280.5 130.9 303.9000000000001 88.8 303.9000000000001zM268.9 303.9H201.1L182.4 215.1H252.5C306.3 215.1 322.6 238.5 322.6 264.2000000000001C322.6 280.5 310.9 303.9000000000001 268.9 303.9000000000001zM458.2 357.7H390.4L371.7 268.9H441.8C495.6 268.9 511.9 292.3 511.9 318C512 334.3 500.3 357.7 458.2 357.7zM430.2 219.8H362.4L343.7 131H413.8C469.9 131 483.9 154.4 483.9 180.1C483.9 196.4 472.3 219.8 430.2 219.8zM240.8 166H173L154.3 77.2H224.4C280.5 77.2 294.5 102.9 294.5 126.3C294.6 142.6 282.9 166 240.8 166z" />
    <glyph glyph-name="blogger-b"
      unicode="&#xF37C;"
      horiz-adv-x="448" d=" M446.6 289.3C444.8 297.3 439.8 304.7000000000001 434.1 307.8C432.3 308.8 421.1 310 409.1 310.5C389 311.4 386.8 311.8 380.4000000000001 315.5C370.3 321.4 367.6 327.8 367.5000000000001 345C367.4000000000001 378 353.7000000000001 408.7 326.6000000000001 436.3C307.3000000000001 456 285.7000000000001 469.3 261.1000000000001 476.8C255.2000000000001 478.6 242.0000000000001 479.2 197.8000000000001 479.7C128.4000000000001 480.5 113.0000000000001 479.1 89.4000000000001 469.7C45.9 452.5 14.7 415.9 3.3 369.1C1.2 360.3 0.7 346.2 0.2 265.2C-0.4 163.7 0.3 148.8 6.6 128.7C22.2 79.1 66.5 42.4 111 34.4C125.8 31.7 308.3 31.1 327 33.6C359.5 37.9999999999999 385 51.1 408.9 75.4999999999999C426.2 93.1999999999999 437 112.3 444.1 137.6C449 155.2 448.6 280.4 446.6 289.3zM124.5 352.9C132.3 360.8 134.5 361.1 183.3 361.1C227.2 361.1 228.7 361 235.1 357.7C244.4000000000001 353 248.5000000000001 346.4 248.5000000000001 335.8C248.5000000000001 326.3 244.7 319.6 236.2 314.2C231.6 311.3 228.9 311.1 185.9 310.9C159.4 310.7 138.2000000000001 311.3 135.1 312.1C118.5 316.8 112.3 340.6 124.5 352.9zM316.3 153.1L301.4000000000001 150.7000000000001L223.9 149.8000000000001C155.8000000000001 149.0000000000001 136.6 150.2000000000001 133 151.8000000000001C125.9 154.9000000000001 119.2 163.5000000000001 118.1 171.2000000000001C117 178.5000000000001 120.7 188.5000000000001 126.3 193.6C133.4 200 136.5 200.2000000000001 223.6 200.3C313.2000000000001 200.4 312.7000000000001 200.4 321.2000000000001 192.5C333.3000000000001 181.2 330.7000000000001 161.3 316.3000000000001 153.1z" />
    <glyph glyph-name="blogger"
      unicode="&#xF37B;"
      horiz-adv-x="448" d=" M162.4 316C167.2 320.9 168.6 321.1 198.8 321.1C226 321.1 226.9 321 230.9 319C236.7 316.1 239.2 312 239.2 305.4C239.2 299.5 236.8 295.4 231.6 292C228.8 290.2 227.1 290.1 200.5 289.9C184.1 289.8 171 290.1 169 290.7000000000001C158.7 293.6 154.9 308.4 162.4 316zM223.8 221.5C169.9 221.5 168 221.3 163.6 217.4C160.1 214.3 157.9 208 158.5 203.5C159.2 198.8 163.3000000000001 193.4 167.7 191.5C169.9 190.5 181.8 189.8 224 190.3L271.9 190.9L281.1 192.4C290.1 197.5000000000001 291.6 209.8 284.2 216.8C278.9 221.5 279.2 221.5 223.8 221.5zM447.2000000000001 91.4C443.7000000000001 63 424.2000000000001 41 396.1 33.9C388.9000000000001 32.1 386.4000000000001 32 223.2 32.1C65.4 32.1 57.3 32.2 51.2 33.9C42.8 36.1 35.6 39.4 28.9 43.9C23.3 47.7 15 55.7 11.9 60.3C8.1 65.9 3.7 75.6 1.9 82.3C0.1 89 0 91.7 0 255.7C0 418.8 0 422.3 1.8 429.4C8.1 454.1 27.7 473 53 478.6C60.3 480.2 385.1 480.5 393 478.9C414.2 474.6 430.9 461.8 440.6 442.5C448.3 427.2 447.6 444 447.9000000000001 261.9C448.1 146.1 447.9000000000001 97.4 447.2000000000001 91.4zM361.8000000000001 276.6C360.7000000000001 281.6 357.6000000000001 286.2 354.1000000000001 288.1C353.0000000000001 288.7 346.1000000000001 289.4 338.6000000000001 289.8C326.2000000000001 290.4 324.8000000000001 290.6 320.8000000000001 292.9C314.6000000000001 296.5 312.9000000000001 300.5 312.8000000000001 311.2C312.8000000000001 331.6 304.3000000000001 350.6 287.5000000000001 367.7C275.5000000000001 379.9 262.2000000000001 388.2 246.9000000000001 392.8C243.3000000000001 393.9 235.1000000000001 394.3 207.7000000000001 394.6C164.8000000000001 395.1 155.2000000000001 394.2 140.6000000000001 388.4C113.6000000000001 377.7 94.3000000000001 355 87.2000000000001 326C85.9000000000001 320.5999999999999 85.6000000000001 311.8 85.3 261.7C84.9 198.8999999999999 85.3 189.5999999999999 89.3 177.1999999999999C99 146.5 126.4 123.8 153.9 118.8C163.1 117.1 276.1 116.6999999999999 287.6 118.3C307.7000000000001 121 323.5 129.1 338.3 144.1999999999999C349 155.0999999999999 355.7 167 360.1 182.6999999999999C363.3 193.5999999999999 363 271.0999999999999 361.8 276.5999999999999z" />
    <glyph glyph-name="bluetooth-b"
      unicode="&#xF294;"
      horiz-adv-x="320" d=" M196.48 251.977L289.106 355.31L143.125 512V305.67L57.014 391.781L25.608 360.376L133.669 251.977L25.608 143.578L57.014 112.173L143.125 198.284L145.84 0L294.392 148.644L196.48 251.977zM237.34 354.973L187.363 304.995L187.025 405.29L237.34 354.973zM187.363 198.96L237.34 148.982L187.025 98.6659999999999L187.363 198.9599999999999z" />
    <glyph glyph-name="bluetooth"
      unicode="&#xF293;"
      horiz-adv-x="448" d=" M292.6 340.9L249.7 298L249.4 384L292.6 340.9M249.4 121.1L292.5 164.2000000000001L249.6 207.1L249.4 121.1zM416 252.6C416 47 344.1 0 230.9 0S32 47 32 252.6S115.4 512 228.6 512S416 458.1 416 252.6zM257.5 252.6L336.9 341.2000000000001L211.8 475.5V298.6L138 372.4L111 345.5L203.7 252.5L111 159.5L137.9 132.6L211.7 206.4L214 36.4L341.4 163.9L257.5 252.6z" />
    <glyph glyph-name="btc"
      unicode="&#xF15A;"
      horiz-adv-x="384" d=" M310.204 269.362C337.9340000000001 283.5420000000001 355.581 308.752 351.4840000000001 350.662C346.1260000000001 408.013 299.0260000000001 427.235 236.6340000000001 432.591V512H188.1060000000001V434.7970000000001C175.5010000000001 434.7970000000001 162.5810000000001 434.482 149.662 434.1670000000001V512H101.134V432.591C83.2920000000001 432.052 62.512 432.315 3.764 432.591V380.913C42.078 381.591 62.181 384.053 66.787 359.486V142.057C63.862 122.565 48.263 125.372 13.532 125.986L3.765 68.32C92.246 68.32 101.135 68.005 101.135 68.005V0H149.663V67.06C162.897 66.745 175.817 66.745 188.107 66.745V0H236.635V68.005C317.9340000000001 72.417 372.2820000000001 92.899 379.5300000000001 169.472C385.201 230.918 356.2100000000001 258.334 310.2040000000001 269.362zM150.608 377.447C178.023 377.447 263.7340000000001 385.954 263.7340000000001 328.919C263.7340000000001 274.404 178.0240000000001 280.707 150.608 280.707V377.447zM150.608 125.671V232.179C183.38 232.179 283.735 241.317 283.735 178.924C283.7340000000001 118.738 183.38 125.671 150.608 125.671z" />
    <glyph glyph-name="buromobelexperte"
      unicode="&#xF37E;"
      horiz-adv-x="448" d=" M0 480V352H128V480H0zM120 360H8V472H120V360zM160 480V352H288V480H160zM280 360H168V472H280V360zM320 480V352H448V480H320zM440 360H328V472H440V360zM0 320V192H128V320H0zM120 200H8V312H120V200zM160 320V192H288V320H160zM280 200H168V312H280V200zM320 320V192H448V320H320zM440 200H328V312H440V200zM0 160V32H128V160H0zM120 40H8V152H120V40zM160 160V32H288V160H160zM280 40H168V152H280V40zM320 160V32H448V160H320z" />
    <glyph glyph-name="buysellads"
      unicode="&#xF20D;"
      horiz-adv-x="448" d=" M224 361.3L266.9 200.6H181.1L224 361.3zM448 432V80C448 53.5 426.5 32 400 32H48C21.5 32 0 53.5 0 80V432C0 458.5 21.5 480 48 480H400C426.5 480 448 458.5 448 432zM382.7 106.7L288.2 405.4H159.8L65.3 106.7H156L267.7 198.3L291.9 106.6999999999999H382.7z" />
    <glyph glyph-name="cc-amex"
      unicode="&#xF1F3;"
      horiz-adv-x="576" d=" M576 256.6C538.1 256.8 531.8 257.5 521.5 251.6V256.6C476.2 256.6 468 258.3 456.6 251.4000000000001V256.6H378.4000000000001V251.5C367.0000000000001 258 357.0000000000001 256.6 302.7000000000001 256.6V251C296.4000000000001 254.7 288.2000000000001 256.6 278.4000000000001 256.6H220.4C216.9 252.8 207.9 242.9 204.7000000000001 239.4C192.0000000000001 253.5 194.2000000000001 251 189.2000000000001 256.6H106.1000000000001V164.3H188.1000000000001C191.4000000000001 167.8 201.0000000000001 178.1999999999999 204.2000000000001 181.6999999999999C216.9 167.3999999999999 214.5000000000001 170 219.6000000000001 164.3H268.5000000000001C268.5000000000001 179 268.6000000000001 172.6 268.6000000000001 187.3C280.1000000000001 187.1 292.9000000000001 187.5 302.9000000000001 193.5C302.9000000000001 179.6 302.8000000000001 176.3999999999999 302.8000000000001 164.3H342.4000000000001C342.4000000000001 182.8 342.5000000000001 171.6999999999999 342.5000000000001 189.6C348.7000000000001 189.6 350.2000000000001 189.6 351.9000000000001 189.5C352.0000000000001 188.1999999999999 351.9000000000001 189.5 351.9000000000001 164.3C504.7000000000001 164.3 497.8000000000001 163.1999999999999 508.6000000000001 168.8V164.3C543.4000000000001 164.3 563.4000000000001 162.1 576.1000000000001 170.4V80C576.1000000000001 53.5 554.6000000000001 32 528.1000000000001 32H48C21.5 32 0 53.5 0 80V283.7H26.6C30.8 293.8 28.8 289 33 299H52.2C56.4 289 54.4 293.8 58.6 283.7H111.5V295.1C113.7 290.1 112.6 292.6 116.6 283.7H146.1C148.5 289.2 148.7 289.5 151.2 295.1V283.7H286.7V308.8C293.1 308.8 294.7 308.9 296.5 308.6C296.5 308.6 296.3 297.7 296.6 283.8H363.1V292.7C370.5 286.8 380.5 283.8 392.8 283.8H419.6C423.8 293.9 421.8 289.1 426 299.1H445C451.5 284.1 445.2 298.6 451.6 283.8H504.4V305.7C516.2 286 512.2 292.8 517.6 283.8H559.2V375.8H519.3000000000001V357.4C507.1000000000001 377.6 513.0000000000001 367.8 508.1000000000001 375.8H464.8000000000001V355.2C458.6000000000001 369.8 460.2 366 456.0000000000001 375.8H423.6000000000001C423.2000000000001 375.8 421.3000000000001 375.6 421.3000000000001 376.1H393.7000000000001C380.9000000000001 376.1 370.6 372.9 363.0000000000001 366.8V376.1H323.1000000000001V370.8C312.3000000000001 376.9 302.4000000000001 375.9 258.7000000000001 376.1C258.6 376.1 247.1000000000001 376.2 247.1000000000001 376.1H144.1000000000001C141.6000000000001 370 137.3000000000001 359.7 131.5000000000001 346.1C128.7000000000001 352.1 120.5000000000001 369.9 117.6000000000001 376.1H71.6000000000001V355C64.2000000000001 372.4 66.9000000000001 366 62.6000000000001 376.1H22.9C19.5 368.2 9.2 344.1 -0.2 322.2V432C-0.2 458.5 21.3 480 47.8 480H527.8C554.3 480 575.8 458.5 575.8 432V256.6zM389.4 337.2C389.1 337 388 335 388 329.6C388 323.6 388.9 321.9 389.1 321.7C389.3 321.6 390.2000000000001 321.2 392.5 321.2L399.8 338.1C398.7 338.1 397.7 338.2 396.7 338.2C391.1 338.2 389.7 337.5 389.4 337.2zM369.5 206.3C378.7 203 380.5 196.8 380.5 187.9L380.4 174.1H363.8L363.9 185.6C363.9 197.4 360.1 199.4 349.1 199.4H331.5L331.3999999999999 174.1H314.7999999999999L314.8999999999999 243.4H354.2999999999999C367.2999999999999 243.4 381.3999999999999 241.1 381.3999999999999 224.7C381.2999999999999 217.1 377.2 209.4 369.5 206.3zM363.2 221.6999999999999C363.2 228.0999999999999 357.6 229.0999999999999 352.5 229.0999999999999H331.5V213.4999999999999H352.2C357.8 213.4999999999999 363.2 214.7999999999999 363.2 221.6999999999999zM544.9 228.8H575V243.4H542.1C529.3000000000001 243.4 518.3000000000001 236.8 518.3000000000001 222.7C518.3000000000001 189.7 561.0000000000001 209.9 561.0000000000001 195.3C561.0000000000001 190.2 556.7000000000002 188.9 552.6000000000001 188.9H520.6000000000001L520.5000000000001 174.1H552.5000000000001C560.9000000000001 174.1 570.1000000000001 175.9 575.0000000000001 183V208.8C564.5000000000001 222.6 535.7000000000002 210.1 535.7000000000002 222.3C535.7000000000002 228.1 540.3000000000002 228.8 544.9000000000002 228.8zM445.7 229.1V243.4H390.5L390.4 174.1H445.6L445.7 188.4L407.1 188.7V202.5H445V216.6H407.2V229.1H445.7zM487.9 189H455.7L455.6 174.1999999999999H487.8C502.6 174.1999999999999 514 179.8 514 196.1999999999999C514 229.3999999999999 471.1 207.3999999999999 471.1 222.5C471.1 228.1 476 228.8999999999999 480.3 228.8999999999999H510.7V243.5H477.5C464.7 243.5 454 236.8999999999999 454 222.8C454 189.8 496.7 210.3 496.7 195.4C496.6 190 492 189 487.9 189zM409.8 347.7C392.4 348 376.6 351.8 376.6 328C376.6 316.2 379.4 308.0999999999999 392.7 308.0999999999999H400.1L423.6 362.5999999999999H448.4L476.3 297.2V362.5999999999999H501.6L530.6999999999999 314.5V362.5999999999999H547.5999999999999V293.5999999999999H524L492.8 345.5V293.5999999999999H459.1L452.5 308.9H418.2L411.8 293.5999999999999H392.6C369.8 293.5999999999999 359.6 305.4 359.6 327.5999999999999C359.6 350.9 370.1 362.8999999999999 393.6 362.8999999999999H409.7000000000001V347.7zM424.1 323.2H446.9L435.7 350.8L424.1 323.2zM351.5 362.8H334.6V293.5H351.5V362.8zM313.4 325.5C322.9 322.2 324.4 316.3 324.4 307.0999999999999V293.5999999999999H307.8C307.5 308.4 311.4 318.7 293 318.7H275V293.5999999999999H258.6V362.8999999999999L297.7 362.5999999999999C311 362.5999999999999 325.1 360.5999999999999 325.1 344.2C325.2 336.2 320.8 328.4999999999999 313.4 325.4999999999999zM306.7 340.8C306.7 347.2 301.1 348.2 296 348.2H275V332.9H295.7C301.4 332.9 306.7 334.2 306.7 340.8zM247.2 348.2V362.8H191.7V293.5H247.2V307.8H208.3V321.6H246.1V335.7H208.3V348.2H247.2zM162.6 293.5V347.7L138.6 293.5H124L100 347.7V293.5H66.2L59.8 308.8H25.3L18.9 293.5H1L30.7 362.8H55.2L83.3 297.1V362.8H110.4L132.1 315.8L151.8 362.8H179.4V293.5H162.6zM53.9 323.2L42.4 350.8L31.2 323.2H53.9zM306.9 220.7C306.9 192.8 276.5 197.4 257.6 197.4L257.5 174.1H225.3L204.9 197.1L183.5999999999999 174.1H118.1999999999999L118.2999999999999 243.4H184.7999999999999L205.2999999999999 220.6L226.3 243.4H279C294.6 243.4 306.9 238 306.9 220.7zM194.2 208.9L176.3 229.1H134.6V216.6H170.9V202.5H134.6V188.6999999999999H175.2L194.2 208.8999999999999zM241 236L215.7 208.6L241 180.5V236zM289.3 220.7C289.3 226.8 284.7 229.1 279.1 229.1H257.6V211.5H278.8C284.7 211.5 289.3 214.3 289.3 220.6999999999999z" />
    <glyph glyph-name="cc-diners-club"
      unicode="&#xF24C;"
      horiz-adv-x="576" d=" M239.7 432.1C142.8 432.1 63.9 353.5 63.9 256.3C63.9 159.4 142.8 80.5 239.7 80.5C336.9 80.5 415.5 159.4 415.5 256.3C415.5 353.5 336.9 432.1 239.7 432.1zM199.8 152.5C158.1 168.4 128.4 208.9 128.4 256.3S158.1 344.2000000000001 199.8 360.4V152.5zM279.6 152.2V360.4C321.3 344.2000000000001 351 303.7 351 256.3S321.3 168.4 279.6 152.2000000000001zM528 480H48C21.5 480 0 458.5 0 432V80C0 53.5 21.5 32 48 32H528C554.5 32 576 53.5 576 80V432C576 458.5 554.5 480 528 480zM329.7 64H239.4C133.2 64 45.6 149.5 45.6 254.2C45.6 368.8 133.2 448 239.4 448H329.7C434.7 448 530.4 368.8 530.4 254.2C530.4 149.5 434.7 64 329.7 64z" />
    <glyph glyph-name="cc-discover"
      unicode="&#xF1F2;"
      horiz-adv-x="576" d=" M83 299.9C83 292 79.8 284.4 74.1 279.2000000000001C69.2 274.8 62.5 272.8 52.2 272.8H48V327H52.2C62.5 327 68.9 325.3 74.1 320.4C79.8 315.4 83 307.8 83 299.9zM504.8 328H499.9V303.1H504.6C514.9 303.1 520.4 307.5 520.4 315.9C520.4 323.8 514.9 328 504.8 328zM576 432V80C576 53.5 554.5 32 528 32H48C21.5 32 0 53.5 0 80V432C0 458.5 21.5 480 48 480H528C554.5 480 576 458.5 576 432zM428 259H473.3V272.8H444V295H472.3V308.8H444V327H473.3V341H428V259zM341.8 341L376.8 256.8H385.4000000000001L420.9000000000001 341H403.4000000000001L381.2000000000001 285.8L359.3000000000001 341H341.8000000000001zM258.8 299.4C258.8 274.8 278.7 254.8 303.4000000000001 254.8C328.0000000000001 254.8 348.0000000000001 274.7000000000001 348.0000000000001 299.4C348.0000000000001 324 328.1000000000001 344 303.4000000000001 344C278.8 344 258.8 324.1 258.8 299.4zM190.8 299.9C190.8 267.4 224.4 247.4 254.1 261.7V280.7C234.8 261.4 207.3 274.9 207.3 299.9C207.3 323.6 234 339 254.1 318.9V337.9C223.9 352.9 190.8 331.1 190.8 299.9zM156.9 271.6C149.3 271.6 143.1 275.3 139.4 282.4L129.1 272.5C146.9 246.4 185.7 254.3 185.7 283.8C185.7 296.9 180.3 302.8 162.1 309.4C152.5 312.8 149.8 315.3 149.8 319.7000000000001C149.8 328.4 164.3 333.8 174.7 322.2000000000001L183.1 333C164 350.1 133.4 341.9000000000001 133.4 318.7000000000001C133.4 307.4 138.6 301.5 153.6 296C179.3 286.9000000000001 168.3 271.6 156.9 271.6zM99.5 299.9C99.5 324 81.5 341 55.4 341H32V259H55.4C86.3 259 99.5 281.4 99.5 299.9zM122.9 341H106.9V259H122.9V341zM544 224C510.7 203.2 317.6 99.6 128 64H529C537.2 64 544 70.8 544 79V224zM544 259L518.1 293.5C530.2 296 536.8000000000001 304.1 536.8000000000001 316.7C536.8000000000001 345.2 506.5000000000001 341.1 483.9000000000001 341.1V259.1H499.9000000000001V291.9H502.1000000000001L524.3000000000001 259.1H544z" />
    <glyph glyph-name="cc-jcb"
      unicode="&#xF24B;"
      horiz-adv-x="576" d=" M431.5 267.7V300C472.7 300 470 299.8 470 299.8C477.3 298.5 483.3 292.5 483.3 283.8C483.3 275 477.3 269.3 470 268C468.8 267.6 466.7 267.7 431.5 267.7zM474.3 247.5C471.5 248.2 471 248 431.5 248V213C471.1 213 471.5 212.8 474.3 213.5C481.8 215 487.8 221.5 487.8 230.5C487.8 239.2 481.8 246 474.3 247.5zM576 432V80C576 53.5 554.5 32 528 32H48C21.5 32 0 53.5 0 80V432C0 458.5 21.5 480 48 480H528C554.5 480 576 458.5 576 432zM182 319.7H125C125 252.6 135.7 210 89.2 210C69.7 210 50.4 215.7 32 224.8V196.8C62 188.5 100 188.5 100 188.5C197.9 188.5 182 236.2 182 319.7zM360.5 315.2C297.1 331.2 195.5 330.1 195.5 255.9C195.5 178.8 303.7 182.3 360.5 196.7V225C312.9 200.3 253 203 253 256S312.8 311.6 360.5 287.2V315.2zM544 225.5C544 244 527.5 256 506 257.5V258.3C525.5 261 536.3 273.8 536.3 288.5C536.3 307.5 520.5999999999999 318.5 499.3 319.5C499.3 319.5 505.6 319.8 379 319.8V192.3H501.6999999999999C525.9999999999999 192.2 543.9999999999999 205.2 543.9999999999999 225.5z" />
    <glyph glyph-name="cc-mastercard"
      unicode="&#xF1F1;"
      horiz-adv-x="576" d=" M482.9 101.7C482.9 94.9 478.3 90 471.7 90C464.9 90 460.5 95.2 460.5 101.7C460.5 108.2 464.9 113.4 471.7 113.4C478.3 113.4 482.9 108.2 482.9 101.7zM172.1 113.4C165 113.4 160.9 108.2 160.9 101.7C160.9 95.2 165 90 172.1 90C178.6 90 183 94.9 183 101.7C182.9 108.2 178.6 113.4 172.1 113.4zM289.6 113.7C284.2 113.7 280.9 110.2 280.1 105H299.2C298.3 110.7 294.8 113.7 289.6 113.7zM397.4 113.4C390.6 113.4 386.5 108.2 386.5 101.7C386.5 95.2 390.6 90 397.4 90C404.2 90 408.6 94.9 408.6 101.7C408.6 108.2 404.2 113.4 397.4 113.4zM503.3 87.3C503.3 86.9999999999999 503.6 86.8 503.6 86.1999999999999C503.6 85.8999999999999 503.3 85.6999999999999 503.3 85.0999999999999C502.9999999999999 84.7999999999999 502.9999999999999 84.5999999999999 502.8 84.2999999999999C502.4999999999999 83.9999999999999 502.3 83.7999999999999 501.6999999999999 83.7999999999999C501.3999999999999 83.4999999999999 501.1999999999999 83.4999999999999 500.5999999999999 83.4999999999999C500.2999999999999 83.4999999999999 500.0999999999999 83.4999999999999 499.4999999999999 83.7999999999999C499.1999999999999 83.7999999999999 498.9999999999999 84.0999999999999 498.6999999999999 84.2999999999999C498.3999999999999 84.5999999999999 498.1999999999999 84.7999999999999 498.1999999999999 85.0999999999999C497.8999999999999 85.5999999999999 497.8999999999999 85.8999999999999 497.8999999999999 86.1999999999999C497.8999999999999 86.6999999999999 497.8999999999999 86.9999999999999 498.1999999999999 87.3C498.1999999999999 87.8 498.4999999999999 88.1 498.6999999999999 88.4C498.9999999999999 88.7 499.1999999999999 88.7 499.4999999999999 88.9C499.9999999999999 89.2 500.2999999999999 89.2 500.5999999999999 89.2C501.0999999999999 89.2 501.3999999999999 89.2 501.6999999999999 88.9C502.1999999999999 88.6 502.4999999999999 88.6 502.8 88.4S502.9999999999999 87.8 503.3 87.3zM501.1 85.9C501.6 85.9 501.6 86.2 501.9 86.2C502.2 86.5 502.2 86.7 502.2 87C502.2 87.3 502.2 87.5 501.9 87.8C501.6 87.8 501.4 88.1 500.8 88.1H499.1999999999999V84.6H499.9999999999999V86H500.3L501.4 84.6H502.2L501.1 85.9zM576 431V79C576 52.5 554.5 31 528 31H48C21.5 31 0 52.5 0 79V431C0 457.5 21.5 479 48 479H528C554.5 479 576 457.5 576 431zM64 291.4C64 214.9 126.1 152.9 202.5 152.9C229.7 152.9 256.4 161.1 279 176C206.1 235.3 206.6 347.2 279 406.5C256.4 421.5 229.7 429.6 202.5 429.6C126.1 429.7 64 367.6 64 291.4zM288 182.6C358.5 237.6 358.2 344.8 288 400.1C217.8 344.8 217.5 237.5 288 182.6zM145.7 106.3C145.7 115 140 120.7 131 121C126.4 121 121.5 119.6 118.2 114.5C115.8 118.6 111.7 121 106 121C102.2 121 98.4 119.6 95.4 115.6V120H87.2V83.3H95.4C95.4 102.2 92.9 113.5 104.4 113.5C114.6 113.5 112.6 103.3 112.6 83.3H120.5C120.5 101.6 118 113.5 129.5 113.5C139.7 113.5 137.7 103.5 137.7 83.3H145.9V106.3zM190.6 120H182.7V115.6C180 118.9 176.2 121 171 121C160.7 121 152.8 112.8 152.8 101.7C152.8 90.5 160.7 82.4 171 82.4C176.2 82.4 180 84.3 182.7 87.8V83.1999999999999H190.6V120zM231.1 94.4C231.1 109.4 208.2 102.6 208.2 109.6C208.2 115.3 220.1 114.4 226.7 110.7L230 117.2C220.6 123.3 199.8 123.2 199.8 109C199.8 94.7 222.7 100.7 222.7 94C222.7 87.7 209.2 88.2 202 93.2L198.5 86.9C209.7 79.3 231.1 80.9 231.1 94.4zM266.5 85.1L264.3 91.9C260.5 89.8 252.1 87.5 252.1 96V112.6H265.2000000000001V120H252.1000000000001V131.2H243.9000000000001V120H236.3000000000001V112.7H243.9000000000001V96C243.9000000000001 78.4 261.2000000000001 81.6 266.5000000000001 85.1zM279.8 98.4999999999999H307.3C307.3 114.6999999999999 299.9000000000001 121.1 289.9000000000001 121.1C279.3 121.1 271.7000000000001 113.2 271.7000000000001 101.8C271.7000000000001 81.3 294.3000000000001 77.9 305.5000000000001 87.6L301.7000000000001 93.6C293.9000000000001 87.2 282.1 87.8 279.8000000000001 98.4999999999999zM338.9000000000001 120C334.3 122 327.3 121.8 323.7000000000001 115.6V120H315.5000000000001V83.3H323.7000000000001V104C323.7000000000001 115.6 333.2000000000001 114.1 336.5000000000001 112.4L338.9000000000001 120zM349.5000000000001 101.6999999999999C349.5000000000001 113.0999999999999 361.1000000000001 116.8 370.2000000000001 110.0999999999999L374.0000000000001 116.5999999999999C362.4000000000001 125.6999999999999 341.3000000000001 120.6999999999999 341.3000000000001 101.5999999999999C341.3000000000001 81.7999999999999 363.7000000000001 77.7999999999999 374.0000000000001 86.5999999999999L370.2000000000001 93.0999999999999C361.0000000000001 86.5999999999999 349.5000000000001 90.4999999999999 349.5000000000001 101.6999999999999zM416.2000000000001 120H408V115.6C399.7 126.6 378.1 120.4 378.1 101.7C378.1 82.5 400.5 77 408 87.8V83.2H416.2V120zM449.9000000000001 120C447.5000000000001 121.1999999999999 438.9000000000001 122.8999999999999 434.7000000000001 115.6V120H426.8000000000001V83.3H434.7000000000001V104C434.7000000000001 115 443.7000000000001 114.3 447.5000000000001 112.4L449.9000000000001 120zM490.2 134.8999999999999H482.3000000000001V115.5999999999999C474.1000000000001 126.4999999999999 452.4000000000001 120.6999999999999 452.4000000000001 101.6999999999999C452.4000000000001 82.3 474.9000000000001 77.0999999999999 482.3000000000001 87.8V83.1999999999999H490.2V134.8999999999999zM497.8000000000001 209.9999999999999V205.3999999999999H498.6000000000001V210H500.5000000000001V210.8H495.9V210H497.8zM504.4000000000001 86.1999999999999C504.4000000000001 86.6999999999999 504.4000000000001 87.2999999999999 504.1000000000001 87.7999999999999C503.8000000000001 88.0999999999999 503.6000000000001 88.5999999999999 503.3000000000001 88.8999999999999C503.0000000000001 89.1999999999999 502.5000000000001 89.3999999999999 502.2 89.6999999999999C501.7 89.6999999999999 501.1 89.9999999999999 500.6 89.9999999999999C500.3 89.9999999999999 499.8 89.6999999999999 499.2 89.6999999999999C498.7 89.3999999999999 498.4 89.1999999999999 498.1 88.8999999999999C497.6 88.5999999999999 497.3 88.0999999999999 497.3 87.7999999999999C497 87.2999999999999 497 86.6999999999999 497 86.1999999999999C497 85.8999999999999 497 85.3999999999999 497.3 84.7999999999999C497.3 84.4999999999999 497.6 83.9999999999999 498.1 83.6999999999999C498.4 83.3999999999999 498.6 83.1999999999999 499.2 82.8999999999999C499.7 82.5999999999999 500.3000000000001 82.5999999999999 500.6 82.5999999999999C501.1 82.5999999999999 501.7 82.5999999999999 502.2 82.8999999999999C502.5000000000001 83.1999999999999 503.0000000000001 83.3999999999999 503.3000000000001 83.6999999999999C503.6000000000001 83.9999999999999 503.8000000000001 84.4999999999999 504.1000000000001 84.7999999999999C504.4000000000001 85.3999999999999 504.4000000000001 85.8999999999999 504.4000000000001 86.1999999999999zM507.6000000000001 210.8999999999999H506.2000000000001L504.6000000000001 207.3999999999999L503.0000000000001 210.8999999999999H501.6000000000001V205.4999999999999H502.4000000000001V209.5999999999999L504.0000000000001 206.0999999999999H505.1000000000001L506.5000000000001 209.5999999999999V205.4999999999999H507.6000000000001V210.8999999999999zM512.0000000000001 291.3999999999999C512.0000000000001 367.5999999999999 449.9000000000001 429.6999999999999 373.5000000000001 429.6999999999999C346.3000000000002 429.6999999999999 319.6000000000002 421.4999999999999 297.0000000000001 406.5999999999999C369.1000000000002 347.2999999999999 370.2000000000001 235.0999999999999 297.0000000000001 176.0999999999999C319.6000000000002 161.0999999999999 346.5000000000001 152.9999999999999 373.5000000000001 152.9999999999999C449.9000000000001 152.8999999999999 512.0000000000001 214.8999999999999 512.0000000000001 291.3999999999999z" />
    <glyph glyph-name="cc-paypal"
      unicode="&#xF1F4;"
      horiz-adv-x="576" d=" M186.3 253.8C186.3 241.6 176.6 232.3 164.3 232.3C155.1 232.3 148.3 237.5 148.3 247.3C148.3 259.5 157.8 269.3 170 269.3C179.3 269.3 186.3 263.6 186.3 253.8zM80.5 302.3H75.8C74.3 302.3 72.8 301.3 72.6 299.6L68.3 272.9000000000001L76.5 273.2000000000001C87.5 273.2000000000001 96 274.7000000000001 98 287.4000000000001C100.3 300.8000000000001 91.8 302.3000000000001 80.5 302.3000000000001zM364.5 302.3H360C358.2 302.3 357 301.3 356.8 299.6L352.6 272.9000000000001L360.6 273.2000000000001C373.6 273.2000000000001 382.6 276.2000000000001 382.6 291.2000000000001C382.5 301.8000000000001 373 302.3000000000001 364.5 302.3000000000001zM576 432V80C576 53.5 554.5 32 528 32H48C21.5 32 0 53.5 0 80V432C0 458.5 21.5 480 48 480H528C554.5 480 576 458.5 576 432zM128.3 296.6C128.3 317.6 112.1 324.6 93.6 324.6H53.6C51.1 324.6 48.6 322.6 48.4 319.9L32 217.8C31.7 215.8 33.2 213.8 35.2 213.8H54.2C56.9 213.8 59.4 216.7 59.7 219.5L64.2 246.1C65.2 253.3 77.4 250.8 82.2 250.8C110.8 250.8 128.3 267.8 128.3 296.6zM212.5 287.8H193.5C189.7 287.8 189.5 282.3 189.3 279.6C183.5 288.1 175.1 289.6 165.6 289.6C141.1 289.6 122.4 268.1 122.4 244.4C122.4 224.9 134.6 212.2 154.1 212.2C163.1 212.2 174.3 217.1 180.6 224.1C180.1 222.6 179.6 219.4 179.6 217.9C179.6 215.6 180.6 213.9 182.8 213.9H200C202.7 213.9 205 216.8 205.5 219.6L215.7 283.9C216 285.8 214.5 287.8 212.5 287.8zM253 189.9L316.7 282.5C317.2 283 317.2 283.5 317.2 284.2C317.2 285.9 315.7 287.7 314 287.7H294.8C293.1 287.7 291.3 286.7 290.3 285.2L263.8 246.2L252.8 283.7C252 285.8999999999999 249.8 287.7 247.3 287.7H228.6C226.9000000000001 287.7 225.4000000000001 285.8999999999999 225.4000000000001 284.2C225.4000000000001 283 244.9000000000001 227.3999999999999 246.6 222.0999999999999C243.9000000000001 218.2999999999999 226.1 193.4999999999999 226.1 190.4999999999999C226.1 188.6999999999999 227.6 187.2999999999999 229.3 187.2999999999999H248.5C250.3 187.3999999999999 252 188.3999999999999 253 189.8999999999999zM412.3 296.6C412.3 317.6 396.1 324.6 377.6 324.6H337.9000000000001C335.2000000000001 324.6 332.7000000000001 322.6 332.4000000000001 319.9L316.2000000000001 217.9C316.0000000000001 215.9 317.5000000000001 213.9 319.4000000000001 213.9H339.9000000000001C341.9000000000001 213.9 343.4000000000001 215.4 343.9000000000001 217.1L348.4000000000001 246.1C349.4000000000001 253.3 361.6 250.8 366.4000000000001 250.8C394.8 250.8 412.3 267.8 412.3 296.6zM496.5 287.8H477.5C473.7 287.8 473.5 282.3 473.2 279.6C467.7 288.1 459.2 289.6 449.5 289.6C425 289.6 406.3 268.1 406.3 244.4C406.3 224.9 418.5 212.2 438 212.2C447.3 212.2 458.5 217.1 464.5 224.1C464.2 222.6 463.5 219.4 463.5 217.9C463.5 215.6 464.5 213.9 466.7 213.9H484C486.7 213.9 489 216.8 489.5 219.6L499.7 283.9C500 285.8 498.5 287.8 496.5 287.8zM544 321.1C544 323.1 542.5 324.6 540.8 324.6H522.3C520.8 324.6 519.3 323.4 519.0999999999999 321.9L502.8999999999999 217.9L502.5999999999999 217.4C502.5999999999999 215.6 504.0999999999999 213.9 506.0999999999999 213.9H522.5999999999999C525.0999999999999 213.9 527.5999999999999 216.8 527.8 219.6L544 320.8V321.1zM454 269.3C441.8 269.3 432.3 259.6 432.3 247.3C432.3 237.6 439.3 232.3 448.5 232.3C460.5 232.3 470.2 241.5 470.2 253.8C470.3 263.6 463.3 269.3 454 269.3z" />
    <glyph glyph-name="cc-stripe"
      unicode="&#xF1F5;"
      horiz-adv-x="576" d=" M398.7 252.3C398.7 237.9000000000001 395 217.1 380.5 217.1C376.8 217.1 373.3 217.8 370.3 219.3V275.2000000000001C380.4000000000001 285.8 398.7 290.4 398.7 252.3zM494.4 285.7000000000001C485.9 285.7000000000001 481.4 278 480.4 261.3H507.8C507.4 277.7000000000001 502.9 285.7000000000001 494.4 285.7000000000001zM576 432V80C576 53.5 554.5 32 528 32H48C21.5 32 0 53.5 0 80V432C0 458.5 21.5 480 48 480H528C554.5 480 576 458.5 576 432zM119.1 227.6C119.1 267.2000000000001 68.7 261.9000000000001 68.7 277C68.7 289.6 97.4 281.1 109.1 275.3000000000001L113.6 303.2000000000001C81.3 318.7000000000001 33.8 313.9000000000001 33.8 274.5000000000001C33.8 254.1000000000001 46.3 245.1000000000001 66.7 237.8000000000001C92 228.6000000000001 86.3 216.9000000000001 72.2 216.9000000000001C62.7 216.9000000000001 47 221.6000000000001 36.8 227.6000000000001L32.3 199.4000000000001C57.9 184.8000000000001 119.1 179.5000000000001 119.1 227.6000000000001zM173.5 281.2000000000001H192.7L197.4 308.9H173.5V342.6L141.3 337.4000000000001L136.8 309L125.3 307L121.1 281.3000000000001H136.6C136.6 224.4 133.7 208.2000000000001 147.6 196.8000000000001C159.7 187.1000000000001 179.7 188.5000000000001 195 192.1000000000001V221.5000000000001C192.8 221.0000000000001 187.5 219.8000000000001 184 219.8000000000001C170.3 219.6000000000001 173.5 229.2000000000001 173.5 281.2000000000001zM271.5 309.6C256.4 312.6 245.9 305.9000000000001 242.3 294.9000000000001L239.8 308.9000000000001H207.1V191.5H244.5000000000001V267.8C252.0000000000001 276.9 266.7000000000001 276 271.4000000000001 275V309.6zM318.1 308.9000000000001H280.7000000000001V191.5H318.1V308.9zM319.1 340.3000000000001C319.1 351.3000000000001 310.4000000000001 360 299.4000000000001 360S279.7000000000001 351.3000000000001 279.7000000000001 340.3000000000001S288.4000000000001 320.4000000000001 299.4000000000001 320.4000000000001S319.1 329.3000000000001 319.1 340.3000000000001zM435.8 253.5000000000001C435.8 273.4000000000001 432.1 288.7000000000001 424.6 298.1C417.9000000000001 306.8000000000001 408.6 311.1 396.9000000000001 311.1C386.2000000000001 311.1 376.7000000000001 306.6 367.7000000000001 297.1L365.7000000000001 308.8000000000001H332.8000000000001V148L370.2000000000001 154.2V191.9C375.9000000000001 190.2 381.9000000000001 189.2 387.2000000000001 189.2C396.4000000000001 189.2 410.1 191.7 420.6 203.2C430.8 214.1 435.8 231.1 435.8 253.5zM495.1 311.1C463.2 311.1 443.5 287.7000000000001 443.5 249.8000000000001C443.5 171.4000000000001 520.6 186.6000000000001 539.2 199.2000000000001L535.2 224.9C524.4000000000001 219.1 483.8000000000001 204.8 480.6 238.4000000000001H542.4C548 276.3000000000001 533.6 311.1 495.1 311.1z" />
    <glyph glyph-name="cc-visa"
      unicode="&#xF1F0;"
      horiz-adv-x="576" d=" M484.3 278.8S492.2 240.4000000000001 493.9 232.4000000000001H459.4C462.8 241.6 476.0000000000001 277.3000000000001 476.0000000000001 277.3000000000001C475.8000000000001 277 479.4 286.7000000000001 481.5000000000001 292.7000000000001L484.3000000000001 278.8000000000001zM576 432V80C576 53.5 554.5 32 528 32H48C21.5 32 0 53.5 0 80V432C0 458.5 21.5 480 48 480H528C554.5 480 576 458.5 576 432zM156.4 175.7L221.6 335.9H177.7L137.1 226.5L132.7 248.7L118.2 322.4C115.8 332.6 108.5 335.5 99.4 335.9H32.7L32 332.7C48.3 328.5 62.8 322.5 75.6 315.1L112.6 175.7H156.4zM253.9 175.5L279.8 335.9H238.3L212.4 175.5H253.9zM398.2000000000001 227.9C398.4000000000001 246.2 387.3000000000001 260.2 363.4000000000001 271.6C348.9000000000001 278.9 340.0000000000001 283.9 340.0000000000001 291.4C340.2000000000001 298.2 347.5000000000001 305.2 363.9000000000001 305.2C377.4000000000001 305.5 387.3 302.3 394.8 299.1L398.6 297.4L404.2000000000001 332C396.0000000000001 335.2 383.0000000000001 338.8 367.0000000000001 338.8C326.0000000000001 338.8 297.2000000000001 317 297.0000000000001 285.7000000000001C296.7000000000001 262.7000000000001 317.7000000000001 249.9000000000001 333.3000000000001 242.2000000000001C349.3000000000001 234.4000000000001 354.8000000000001 229.2000000000001 354.8000000000001 222.2000000000001C354.6000000000001 211.5000000000001 341.8000000000001 206.5000000000001 329.9000000000001 206.5000000000001C313.3000000000001 206.5000000000001 304.5000000000001 209.1000000000001 291.0000000000001 215.0000000000001L285.5000000000001 217.6000000000001L279.7000000000001 181.6000000000001C289.4000000000001 177.2000000000001 307.3000000000002 173.2000000000001 326.0000000000001 173.1000000000001C369.6000000000002 173.1000000000001 397.9000000000001 194.7000000000001 398.2000000000001 227.9000000000001zM544 175.5L510.5 335.9H478.4C468.5 335.9 461 333 456.7 322.6L395.1 175.5H438.6S445.8 195.3 447.3 199.6H500.6C501.8 194 505.4999999999999 175.5 505.4999999999999 175.5H544z" />
    <glyph glyph-name="chrome"
      unicode="&#xF268;"
      horiz-adv-x="496" d=" M131.5 294.5L55.1 411.9C102.7 471.1 174.1 503.7 247.1 504C289.4 504.3 332.6 493.5 371.9 470.8C415.3 445.6 448.3 409.4 469.3 367.8L264 378.6C205.9 382 150.6 349.3 131.5 294.5zM164.4 256C164.4 209.8 201.8 172.4 248 172.4S331.6 209.8 331.6 256S294.2000000000001 339.6 248.0000000000001 339.6S164.4 302.3 164.4 256zM479.3 345.2L339.6 338C377.5 293.7 378.1 229.8 346.2000000000001 180.8L234.1 8.4C280.6 5.9 328.5 16.1 371.9 41.3C479.3 103.3 522.8 233.3 479.3 345.2zM133.7 208.4L40.4 391.9C14.9 352.9 0 306.1 0 256C0 132 90.8 29.3 209.5 11.1L273.2 135.9C215.6 125.1 160 156.7000000000001 133.7 208.4z" />
    <glyph glyph-name="cloudscale"
      unicode="&#xF381;"
      horiz-adv-x="448" d=" M318.1 358L308.7000000000001 350.4C286.2000000000001 369.7000000000001 257.2000000000001 384 225.4000000000001 384C153.8 384 96 323.2 96 251.7C96 245.1 96.4 238.6 97.4 232.3C95.4 288.3 139.2 329.7000000000001 190 329.7000000000001C214.2 329.7000000000001 236.2 320.3 252.6 305L227.4 284.6C219.1 285.5 210.6 282.8 204.3 276.5C193.2 265.5 193.2 247.6 204.3 236.5C215.4 225.5 233.2 225.5 244.3 236.5C250.6 242.8 253.3 251.4 252.4 259.6L327.6 348.4C333.9000000000001 354.9 324.3 364.3 318.1 358zM234.3 246.5C228.7 241 219.7 241 214.1 246.5C208.5 252.1 208.5 261.1 214.1 266.7S228.7 272.3 234.3 266.7S239.9 252 234.3 246.5zM224 480C100.5 480 0 379.5 0 256S100.5 32 224 32S448 132.5 448 256S347.5 480 224 480zM224 96C135.8 96 64 167.8 64 256S135.8 416 224 416S384 344.2 384 256S312.2 96 224 96z" />
    <glyph glyph-name="cloudsmith"
      unicode="&#xF382;"
      horiz-adv-x="332" d=" M332.5 92.1C332.5 45.7 294.9 8 248.5 8S164.5 45.7 164.5 92.1S202.1 176.1 248.5 176.1S332.5 138.5 332.5 92.1zM248.5 336C294.9 336 328.5 373.6 328.5 420S294.9 504 248.5 504S160.5 466.4 160.5 420S130.9 344 84.5 344S0.5 302.4000000000001 0.5 256S38.1 176 84.5 176S168.5 209.6 168.5 256S202.1 336 248.5 336z" />
    <glyph glyph-name="cloudversify"
      unicode="&#xF383;"
      horiz-adv-x="616" d=" M148.6 208C156.8 139.5 216 92.5 294.6 96.7C345.8 53.4 431.4000000000001 50.9 481 102.3C550.2 101.2 599.5 146.9 612.5 201.8C627.3 264.3 594.3 334.3 520.4 356.9C487.4 445 389 458.4 333.9 441.9C276.6 424.6 249.6 388.7 234.6 332.2C226.8 329.5 208.1 323.3 189.6 308.1C201.3 308.1 204.8 299.2 204.8 288.6V268.2C204.8 257.5 196.1 248.7 185.3 248.7H165.1C154.4 248.7 145.6 254.7 145.6 265.4V272H98.8C95 272 88 267.7 88 260.1V219.7C88 213.3 93.3 207.9 99.7 207.9H148.6zM376 200C365.3 153.7 397.7 127.6 431.3 113.2C324.1 79.4 259.7 164 296 224C262.8 202.4 262.3 152.8 266.8 131.1C248.9 143.5 213 163.5 209.4 210.9C206.4 250.8 230.9 286.6 266.4 304.8000000000001C297 320.6 369.9 313.3 400 264C385.9 312 346.2 334.1 298.2 338.8C329.1 369.5 362.6 389.1 412.4 382.5C482.2 373.2 545.5999999999999 299.7 480.1 232C515.0999999999999 248.3 528.8 286.4 527.5999999999999 308.9L538.0999999999999 289.3C549.8999999999999 267.3 553.3 241.7 547.4999999999999 217.3C538.2999999999998 178.3 506.8999999999999 148.5 467.7999999999999 140.8C435.6999999999999 134.5 384.7 145.9 375.9999999999999 200zM128 304H88.2C79.3 304 72 311.3 72 320.2V359.8C72 368.7 79.3 376 88.2 376H128C136.9 376 144.2 368.7 144.2 359.8V320.2C144.2 311.3 136.9 304 128 304zM10.1 344C4.5 344 0 348.5 0 354.1V381.9C0 387.5 4.5 392 10.1 392H37.8C43.3 392 47.9 387.5 47.9 381.9V354.1C47.9 348.5 43.4 344 37.8 344H10.1zM168 369.3V390.7000000000001C168 395.8 172.2 400 177.3 400H198.7C203.8 400 208 395.8 208 390.7000000000001V369.3C208 364.2000000000001 203.8000000000001 360 198.7 360H177.3C172.2 360 168 364.2 168 369.3zM56 276.5V251.5C56 245.2 50.9 240 44.6 240H19.4C13.1 240 8 245.2 8 251.5V276.5C8 282.8 13.1 288 19.4 288H44.5C50.9 288 56 282.8 56 276.5z" />
    <glyph glyph-name="codepen"
      unicode="&#xF1CB;"
      horiz-adv-x="512" d=" M502.285 352.296L268.2850000000001 508.296C260.298 513.211 251.7740000000001 513.256 243.7140000000001 508.296L9.714 352.296C3.714 348.2970000000001 0 341.153 0 334.011V178.012C0 170.869 3.714 163.726 9.715 159.726L243.715 3.704C251.702 -1.211 260.226 -1.256 268.286 3.704L502.286 159.726C508.286 163.725 512.001 170.869 512.001 178.012V334.011C512 341.153 508.286 348.2970000000001 502.285 352.296zM278 448.8690000000001L450.286 334.011L373.429 282.582L278 346.2970000000001V448.8690000000001zM234 448.8690000000001V346.2970000000001L138.571 282.582L61.714 334.011L234 448.8690000000001zM44 292.868L99.143 256.011L44 219.154V292.868zM234 63.153L61.714 178.011L138.571 229.4400000000001L234 165.725V63.153zM256 204.011L178.285 256.011L256 308.011L333.7150000000001 256.011L256 204.011zM278 63.153V165.725L373.429 229.4400000000001L450.286 178.0110000000001L278 63.153zM468 219.154L412.857 256.011L468 292.868V219.154z" />
    <glyph glyph-name="codiepie"
      unicode="&#xF284;"
      horiz-adv-x="472" d=" M422.5 309.1C453.2 309.1 456 256 422.2 256H411.4V211.7H384.8V309.1H422.5zM472 159.4C429.9 67.5 350.4 8 248 8C111 8 0 119 0 256S111 504 248 504C345.4 504 420.8 450.3 466.2 365.6L280.2 256.8L472 159.4zM433.5 146.9L373.2 177.6C346.1 133.3 302.8 106.1999999999999 250.8 106.1999999999999C168.3 106.1999999999999 101.6 172.8999999999999 101.6 255.0999999999999C101.6 337.5999999999999 168.3 404.2999999999999 250.8 404.2999999999999C299.2 404.2999999999999 339.7 380.7999999999999 367.7 340.8999999999999L427.2 375.4999999999999C386.5 438.0999999999999 322.5 475.4999999999999 248 475.4999999999999C126.8 475.4999999999999 28.5 377.1999999999999 28.5 255.9999999999999S126.8 36.5 248 36.5C326.6 36.5 394.5 78.6 433.5 146.9z" />
    <glyph glyph-name="connectdevelop"
      unicode="&#xF20E;"
      horiz-adv-x="576" d=" M550.5 271L500.411 357.786C501.482 359.928 502.286 362.339 502.286 365.0180000000001C502.286 373.054 495.59 379.751 487.554 380.019L432.107 475.912C432.643 477.519 433.178 479.126 433.178 480.733C433.178 489.304 426.214 496.001 417.91 496.001C413.089 496.001 409.071 493.858 406.124 490.376H299.518C296.839 493.857 292.8210000000001 496 288 496S279.161 493.857 276.482 490.375H170.411C167.464 493.857 163.447 496 158.625 496C150.322 496 143.357 489.304 143.357 480.732C143.357 479.125 143.893 477.25 144.429 475.911L88.446 378.678C83.09 376.2680000000001 79.339 371.178 79.339 365.017C79.339 364.482 79.607 363.9460000000001 79.607 363.41L26.303 271.267C19.071 269.928 13.713 263.767 13.713 256.267C13.713 249.035 18.802 242.874 25.767 241.267L80.946 145.909C80.41 144.302 80.142 142.963 80.142 141.088C80.142 133.856 85.231 127.6949999999999 92.196 126.356L143.893 36.624C143.357 35.017 142.822 33.142 142.822 31.267C142.822 22.696 149.786 15.999 158.09 15.999C162.911 15.999 166.929 18.142 169.608 21.3560000000001H276.483C279.161 18.143 283.447 16 288 16S296.839 18.143 299.5180000000001 21.357H406.6610000000001C409.3390000000001 18.411 413.3570000000001 16.536 417.6430000000001 16.536C426.2140000000001 16.536 432.9110000000001 23.5 432.9110000000001 31.804C432.9110000000001 33.411 432.6440000000001 34.75 432.1080000000001 36.089L483.8050000000001 126.357C490.7690000000001 127.696 495.859 133.857 495.859 141.089C495.859 142.696 495.5910000000001 144.303 495.0550000000001 145.91L549.9660000000001 241.268C556.9300000000002 242.607 562.2880000000001 248.768 562.2880000000001 256.268C562.2860000000002 263.5 557.1960000000001 269.661 550.5000000000001 271zM153.535 61.268L109.875 137.071H153.535V61.268zM153.535 145.107H109.875C109.607 146.178 109.071 147.249 108.536 148.321L153.535 195.731V145.107zM153.535 207.518L103.178 154.214C101.839 154.75 100.499 155.5539999999999 99.16 155.821L43.447 252.25C43.982 253.589 43.982 254.929 43.982 256.2680000000001S43.982 258.678 43.714 259.75L95.679 349.75C98.358 350.0180000000001 101.036 350.822 103.447 352.429L153.536 300.464V207.518zM153.535 309.84L107.732 357.25C109.071 359.393 109.875 362.071 109.875 365.017C109.875 365.285 109.607 365.821 109.607 366.089L153.535 381.893V309.84zM153.535 390.465L109.875 374.661L153.535 450.197V390.465zM480.054 351.357L480.8579999999999 350.018L445.5 182.875L381.75 250.107L479.786 351.625L480.054 351.357zM291.75 156.893L303.2680000000001 145.107H280.5L291.75 156.893zM291.4820000000001 168.143L208.179 253.589L287.7320000000001 337.964L370.7680000000001 250.375L291.4820000000001 168.1429999999999zM296.8390000000001 162.25L376.1250000000001 244.482L443.6250000000001 173.232L437.7330000000001 145.107H313.714L296.839 162.25zM410.411 467.607C411.4820000000001 467.071 412.553 466.535 413.8930000000001 466.267L471.75 365.553V365.017C471.75 362.0710000000001 472.553 359.3930000000001 473.893 357.25L376.393 256L293.358 343.589L410.411 467.607zM401.304 469.75L287.7320000000001 349.482L230.6780000000001 409.75L397.0170000000001 469.75H401.3040000000001zM277.821 469.75C280.499 467.072 283.981 465.465 288 465.465S295.5 467.072 298.1789999999999 469.75H373.1789999999999L224.786 416.179L173.893 469.75H277.8210000000001zM161.572 464.125L162.643 466.267A33.834 33.834 0 0 1 165.322 467.071L216.483 413.231L161.572 393.41V464.125zM161.572 384.839L222.375 406.803L282.107 343.589L202.554 259.482L161.572 301.535V384.839zM161.572 292.161L198 254.393L161.572 216.089V292.161zM161.572 204.303L203.625 248.767L286.393 162.785L269.25 145.107H161.572V204.303zM168.536 42.25C166.929 43.857 165.054 44.928 162.643 45.732L161.572 47.3390000000001V137.071H261.482L169.875 42.25H168.536zM298.447 42.25C295.7680000000001 44.66 292.019 46.535 288 46.535S280.233 44.66 277.553 42.25H181.124L272.731 137.071H311.035L402.642 42.25H298.447zM418.447 54.036L414.161 46.536C412.822 46.268 411.751 45.733 410.679 45.197L321.483 137.072H435.8589999999999L418.447 54.036zM431.303 76.268L444.161 137.071H466.125L431.303 76.268zM466.125 145.107H445.7680000000001L450.3210000000001 166.2670000000001L467.4640000000001 148.0530000000001C466.929 147.2500000000001 466.393 146.179 466.1250000000001 145.107zM532.2860000000001 252.5180000000001L476.8390000000001 155.821C475.5000000000001 155.286 474.1600000000001 154.75 472.8210000000001 153.947L452.1960000000001 175.911L486.7500000000001 339.839L532.5530000000001 260.553C532.2860000000001 259.214 531.7500000000001 257.875 531.7500000000001 256.2680000000001C531.7500000000001 254.929 532.0180000000001 253.8570000000001 532.2860000000001 252.5180000000001z" />
    <glyph glyph-name="contao"
      unicode="&#xF26D;"
      horiz-adv-x="512" d=" M45.4 207C59.8 139.9 71.8 78 113.6 32H34C15.3 32 0 47.2 0 66V446C0 464.7 15.2 480 34 480H91.7C77.9 467.4 65.6 452.8 54.8 436.4C9.4 366.4 27.8 289.6 45.4 207zM478 480H387.8C409.2 458.6 427 430.5 440.5 395.9L303.4 366.6C288.5 395.6 265.6 419.9 220.8 410.5C196.2 405.2 179.8 391.2 172.5 375.9C163.7 357.2000000000001 159.3 336.1 180.7 235.6C201.8 135.4 214.4 117.9 230.2 104.4C243.1 93.3 263.6 87.4 288.5 92.7000000000001C333 102.1 344.2 133.4 345.9 165.9L483.3 195.5000000000001C486.4999999999999 124.0000000000001 464.6 70.3000000000001 425.9 31.9000000000001H478C496.7 31.9000000000001 512 47.1000000000001 512 65.9000000000001V446C512 464.8 496.8 480 478 480z" />
    <glyph glyph-name="cpanel"
      unicode="&#xF384;"
      horiz-adv-x="640" d=" M52.9 298.3H92.9L86.7 274.7000000000001C84.8 268.2000000000001 79.3 263.8 72.4 263.8H53.8C28.9 263.8 29.1 226.4000000000001 53.8 226.4000000000001H65.1C69.3 226.4000000000001 72.7 222.5000000000001 71.5 218.1L64.4 192H52C18.5 192 -7 223.4 1.7 257.2C9 284.2 30 298.3 52.9 298.3M73.1 192L108 322.1C109.8 328.5 115.2 333 122.3 333H159.3C183.4 333 204.7 316.6 210.3 291.8C216.9 262.7000000000001 195.8 226.5 158.6 226.5H126.6L133 250.3C134.8000000000001 256.5 140.3000000000001 261.1 147.3000000000001 261.1H157.6000000000001C170.0000000000001 261.1 178.4000000000001 272.8 175.9000000000001 283.7000000000001C173.8000000000001 292.9 166.0000000000001 298.5 157.6000000000001 298.5H137.8000000000001L112 202.8C110.1 196.6 104.6 192.1 97.8 192.1L73.1 192M293.7 261.4C294 262.4 295.6 266.7000000000001 291.6 266.7000000000001H234.1C224.4 266.7000000000001 217.5 275.6 219.9 285.2000000000001L223.4 298.6H301.3C320.1 298.6 334.6 281 329.8 261.8L315.8 210C313 199.4 303.6 192.2 292.4 192.2L234.9 192.4C192 192.4 196.4 256.2 235.6 256.2H284L280.5 243C278.6 236.8 273.1 232.2 266.3 232.2H244.7C239.4 232.2 239.4 224.3 244.7 224.3H279.6C284.2000000000001 224.3 284.7000000000001 228.2 285.1 229.6L293.7000000000001 261.4000000000001M396.8000000000001 298.3000000000001C431.2000000000001 298.3000000000001 456.1000000000001 266.0000000000001 447.1000000000001 232.9000000000001L438.3000000000001 199.8C437.1000000000001 194.9 432.6000000000001 192 428.0000000000001 192H408.9000000000001C404.4000000000001 192 401.3 196 402.5000000000001 200.3L413.1000000000001 240.3C416.4000000000001 251.9000000000001 407.5000000000001 263.7000000000001 395.0000000000001 263.7000000000001H375.2000000000001L358.0000000000001 199.7000000000001C356.8000000000001 194.9 352.4000000000001 191.9 347.6000000000001 191.9H328.7000000000001C324.5000000000001 191.9 321.1000000000001 195.8 322.3000000000002 200.2000000000001L348.5000000000001 298.2000000000001H396.8000000000002M498 260.4L490 230.4C489.1 227.1 491.5 223.7 495.1 223.7H568.4L562.6999999999999 202.7C560.8 196.5 555.3 192 548.4999999999999 192H481.7999999999999C461.7999999999999 192 448.4999999999999 211 453.4999999999999 228.7L464.2999999999999 268.7C469.0999999999999 286.3 484.9999999999999 298.3 502.8999999999999 298.3H550.1999999999999C569.1999999999999 298.3 583.4 280.6 578.4999999999999 261.5L575.2999999999998 249.5C572.3999999999999 238.5 562.5999999999998 231.9 552.0999999999998 231.9H498.6999999999998L502.1999999999998 244.9C503.7999999999998 251.1 509.3999999999998 255.7 516.3999999999999 255.7H538C540 255.7 541.3 256.7 541.9 258.7L542.6 261.3C543.3000000000001 264 541.3000000000001 266.4 538.7 266.4H505.8000000000001C501.7 266.4 498.9000000000001 264.3 498.0000000000001 260.4zM568.2 192L603.8000000000001 325.1C605.0000000000001 329.8 609.3000000000001 333 614.2 333H633.1C637.6 333 640.8000000000001 329 639.6 324.7L613.1 226.5C608 205.8 588.9 192 568.2 192" />
    <glyph glyph-name="creative-commons"
      unicode="&#xF25E;"
      horiz-adv-x="512" d=" M255.547 504C392.884 504 504 397.5610000000001 504 255.996C504 106.021 381.106 8 255.562 8C122.319 8 8 117.443 8 255.996C8 387.175 113.486 504 255.547 504zM256.446 459.266C136.105 459.266 52.719 358.698 52.719 255.988C52.719 149.473 141.703 53.594 256.446 53.594C357.974 53.594 459.2669999999999 133.036 459.2669999999999 255.981C459.266 370.754 367.4939999999999 459.266 256.4459999999999 459.266zM253.338 297.173L220.113 279.898C214.718 291.101 204.863 299.824 192.654 299.824C170.52 299.824 159.437 285.215 159.437 255.982C159.437 232.14 168.883 212.14 192.654 212.14C207.1229999999999 212.14 217.3069999999999 219.231 223.22 233.399L253.771 217.899C240.958 194 216.8839999999999 178.924 188.6699999999999 178.924C145.5079999999999 178.924 114.7109999999999 206.196 114.7109999999999 255.976C114.7109999999999 305.517 147.4169999999999 333.035 187.3449999999999 333.035C218.0589999999999 333.048 240.0459999999999 321.089 253.3379999999999 297.173zM396.382 297.173L363.607 279.898C358.09 291.38 348.283 299.824 335.707 299.824C313.565 299.824 302.482 285.215 302.482 255.982C302.482 232.076 311.984 212.14 335.707 212.14C350.161 212.14 360.352 219.231 366.25 233.399L397.25 217.899C383.887 194.03 359.799 178.924 332.164 178.924C288.725 178.924 258.205 205.912 258.205 255.976C258.205 305.499 290.903 333.035 330.831 333.035C361.5370000000001 333.048 383.4000000000001 321.089 396.382 297.173z" />
    <glyph glyph-name="css3"
      unicode="&#xF13C;"
      horiz-adv-x="512" d=" M480 480L416 112L192.7 32L0 112L19.6 206.8H101.6L93.6 166.2L210 121.8L344.1 166.2L362.9000000000001 263.3H29.5L45.5 345.3H379.2L389.7 398H56.3L72.6 480H480z" />
    <glyph glyph-name="cuttlefish"
      unicode="&#xF387;"
      horiz-adv-x="440" d=" M344 206.5C326.5 174.9 286.6 152 248 152C191.4 152 144 199.4 144 256S191.4 360 248 360C286.6 360 326.5 337.1 344 305.5C357.7 356.4 385.7 398.8 431 423.3C385.7 472.9 320.5 504 248 504C111 504 0 393 0 256S111 8 248 8C320.5 8 385.7 39.1 431 88.7C385.7 113.2 357.7 155.6 344 206.5z" />
    </font>
</defs>
</svg>
